<svg fill="#000000" xmlns="http://www.w3.org/2000/svg"  viewBox="0 0 24 24" width="96px" height="96px"><path d="M12.5 4.0253296V.5C12.5.2236328 12.2763672 0 12 0s-.5.2236328-.5.5v3.5253296C6.218689 4.2883911 2 8.6546021 2 14c0 5.5141602 4.4858398 10 10 10s10-4.4858398 10-10C22 8.6546021 17.781311 4.2883911 12.5 4.0253296zM18.6546021 7.9621582c-.4954224.1900635-1.0427856.3568115-1.6342773.4973755-.4393311-1.1176758-1.0093994-2.072937-1.6783447-2.80896C16.6174927 6.1630249 17.744812 6.9603882 18.6546021 7.9621582zM21 14c0 1.0111694-.1752319 1.9803467-.4841919 2.8883667-.6116943.5904541-1.7088623 1.0942383-3.1004639 1.461731.352417-1.2422485.557312-2.6295166.5775757-4.1091919 1.2280273-.3551636 2.2316895-.8225708 2.9275513-1.3751831C20.9676514 13.2381592 21 13.6149902 21 14zM3 14c0-.3849487.0324097-.7617798.0795288-1.1341553.6959229.5524902 1.699585 1.0198364 2.9275513 1.374939.0202637 1.4796753.2251587 2.8670654.5775757 4.109314-1.3920898-.3676758-2.4890747-.8718262-3.1008301-1.4627686C3.1751099 15.9796143 3 15.0108032 3 14zM12.5 9.989502c1.3615112-.0256348 2.6722412-.151062 3.8630371-.3721924.3577271 1.1491089.5754395 2.4534302.6217041 3.8410645-1.2610474.300293-2.776062.5-4.4847412.5332642V9.989502zM12.5 8.9896851V5.0455933c1.4411621.2588501 2.6998291 1.6294556 3.5180054 3.6208496C14.9331665 8.8577271 13.7403564 8.9656372 12.5 8.9896851zM11.5 5.0455933v3.9440918C10.2595215 8.9656982 9.0668945 8.857605 7.9820557 8.6663208 8.8002319 6.6749268 10.0588989 5.3044434 11.5 5.0455933zM11.5 9.9894409v4.0024414c-1.718811-.0321655-3.2304688-.2262573-4.4851074-.5214844.0453491-1.3920898.2632446-2.7004395.6219482-3.8528442C8.8275146 9.838562 10.1383667 9.9638062 11.5 9.9894409zM6.0233765 13.2026367c-1.3312988-.4161987-2.2651367-.9505615-2.7164917-1.4939575.2825317-1.0702515.7541504-2.0618286 1.3825073-2.9377441.5872192.2456665 1.2435303.4603271 1.9645386.6358643C6.3049927 10.5547485 6.0855103 11.8353271 6.0233765 13.2026367zM7.0139771 14.4957886C8.3441162 14.7887573 9.8682861 14.9622803 11.5 14.9921265v3.9934082c-1.3413086-.0275269-2.6312256-.1589355-3.788269-.3814697C7.3074951 17.3890381 7.0596313 15.9918823 7.0139771 14.4957886zM11.5 19.9855347v2.9688721c-1.3533325-.243103-2.5491943-1.4619141-3.3674316-3.258667C9.1807251 19.8635254 10.3122559 19.9633179 11.5 19.9855347zM12.5 22.9544067v-2.9688721c1.1876831-.0222778 2.3192749-.1220703 3.3674927-.289917C15.0492554 21.4924927 13.8533936 22.7113037 12.5 22.9544067zM12.5 18.9855347v-3.9934082c1.631958-.0298462 3.1561279-.2033081 4.4860229-.4961548-.0456543 1.4959717-.2935181 2.8931885-.6977539 4.1081543C15.1311035 18.8266602 13.8411865 18.9580078 12.5 18.9855347zM17.9761963 13.1882935c-.0629883-1.3620605-.2824097-2.6376953-.630188-3.7817383.7208252-.1755981 1.3771973-.3903198 1.9643555-.6359863.628479.8759155 1.1002197 1.8676758 1.3827515 2.9379883C20.2467651 12.2388306 19.3069458 12.7703247 17.9761963 13.1882935zM8.65802 5.6505737C7.9890137 6.3865967 7.4189453 7.3419189 6.9796143 8.4597168c-.5914917-.1405029-1.138916-.3071899-1.6344604-.4972534C6.2549438 6.9606323 7.3823853 6.1630859 8.65802 5.6505737zM4.2714844 18.5881958c.7484131.3580933 1.6616211.6519775 2.6827393.8817139.4428101 1.1473389 1.0211182 2.128418 1.7037964 2.8795166C6.8154297 21.6090698 5.277832 20.2765503 4.2714844 18.5881958zM15.34198 22.3494263c.6826782-.7511597 1.2610474-1.7322388 1.7038574-2.8796997 1.0211182-.2297974 1.9345093-.5236816 2.6828003-.8817749C18.7223511 20.2764282 17.1846313 21.6090698 15.34198 22.3494263zM18.3666992 2.9819336c.4960938.137207.5141602.1552734.6513672.6513672C19.078125 3.8500977 19.2749023 4 19.5 4s.421875-.1499023.4819336-.3666992c.137207-.4960938.1552734-.5141602.6513672-.6513672C20.8500977 2.921875 21 2.7250977 21 2.5s-.1499023-.421875-.3666992-.4819336c-.4960938-.137207-.5141602-.1552734-.6513672-.6513672-.1201172-.4335938-.84375-.4335938-.9638672 0-.137207.4960938-.1552734.5141602-.6513672.6513672C18.1499023 2.078125 18 2.2749023 18 2.5S18.1499023 2.921875 18.3666992 2.9819336zM2.6333008 22.0180664c-.4960938-.137207-.5141602-.1552734-.6513672-.6513672-.1201172-.4335938-.84375-.4335938-.9638672 0-.137207.4960938-.1552734.5141602-.6513672.6513672C.1499023 22.078125 0 22.2749023 0 22.5s.1499023.421875.3666992.4819336c.4960938.137207.5141602.1552734.6513672.6513672C1.078125 23.8500977 1.2749023 24 1.5 24s.421875-.1499023.4819336-.3666992c.137207-.4960938.1552734-.5141602.6513672-.6513672C2.8500977 22.921875 3 22.7250977 3 22.5S2.8500977 22.078125 2.6333008 22.0180664zM23.6333008 5.5180664c-.0678711-.0185547-.1079102-.0327148-.1123047-.0292969-.0078125-.0185547-.0205078-.0546875-.0390625-.1220703-.1201172-.4335938-.84375-.4335938-.9638672 0-.0185547.0673828-.03125.1035156-.0292969.1123047-.0185547.0078125-.0546875.0205078-.1220703.0390625C22.1499023 5.578125 22 5.7753906 22 6s.1499023.421875.3666992.4819336c.0678711.0185547.1049805.0253906.1123047.0292969.0078125.0185547.0205078.0546875.0390625.1220703C22.578125 6.8500977 22.7753906 7 23 7s.421875-.1499023.4819336-.3666992c.0185547-.0673828.03125-.1035156.0292969-.1123047.0185547-.0078125.0546875-.0205078.1220703-.0390625C23.8500977 6.421875 24 6.2246094 24 6S23.8500977 5.578125 23.6333008 5.5180664z"/></svg>