<svg fill="#000000" xmlns="http://www.w3.org/2000/svg"  viewBox="0 0 50 50" width="100px" height="100px"><path d="M 34.8125 3 C 34.335938 3.089844 33.992188 3.511719 34 4 C 34 4 34.019531 5.101563 34.3125 6.25 C 34.460938 6.824219 34.660156 7.425781 35.0625 7.96875 C 35.070313 7.980469 35.085938 7.988281 35.09375 8 L 32.4375 8 L 31.71875 7.28125 C 31.476563 7.03125 31.121094 6.925781 30.78125 7 C 30.40625 7.066406 30.105469 7.339844 30 7.703125 C 29.894531 8.070313 30.003906 8.460938 30.28125 8.71875 L 31.28125 9.71875 C 31.472656 9.90625 31.734375 10.007813 32 10 L 36 10 L 36 22.21875 C 35.671875 22.339844 35.371094 22.511719 35.09375 22.71875 L 30.6875 18.3125 C 30.675781 18.300781 30.667969 18.292969 30.65625 18.28125 C 30.65625 18.28125 30.335938 17.984375 29.875 17.6875 C 29.414063 17.390625 28.820313 17.03125 28 17.03125 C 27.285156 17.03125 26.652344 17.457031 26.25 17.96875 C 25.847656 18.480469 25.574219 19.082031 25.34375 19.8125 C 24.882813 21.277344 24.601563 23.234375 24.40625 25.53125 C 24.011719 30.128906 24 36.132813 24 42.03125 C 24 42.03125 24 42.835938 23.625 43.59375 C 23.25 44.351563 22.6875 45.03125 21 45.03125 C 19.3125 45.03125 18.75 44.328125 18.375 43.5625 C 18 42.796875 18 42 18 42 L 18 15 C 18 12.207031 15.757813 10 13 10 C 13.011719 9.710938 12.894531 9.433594 12.6875 9.238281 C 12.476563 9.039063 12.191406 8.941406 11.90625 8.96875 C 11.863281 8.976563 11.820313 8.988281 11.78125 9 C 11.316406 9.105469 10.988281 9.523438 11 10 L 4 10 L 4 12 L 11 12 C 10.996094 12.359375 11.183594 12.695313 11.496094 12.878906 C 11.808594 13.058594 12.191406 13.058594 12.503906 12.878906 C 12.816406 12.695313 13.003906 12.359375 13 12 C 14.742188 12 16 13.230469 16 15 L 16 42 C 16 42 15.980469 43.21875 16.59375 44.46875 C 17.207031 45.71875 18.648438 47.03125 21 47.03125 C 23.351563 47.03125 24.792969 45.710938 25.40625 44.46875 C 26.019531 43.226563 26 42.03125 26 42.03125 C 26 36.140625 26.023438 30.140625 26.40625 25.6875 C 26.597656 23.460938 26.875 21.632813 27.25 20.4375 C 27.4375 19.839844 27.652344 19.390625 27.8125 19.1875 C 27.972656 18.984375 27.988281 19.03125 28 19.03125 C 28.078125 19.03125 28.46875 19.171875 28.78125 19.375 C 29.074219 19.5625 29.253906 19.726563 29.28125 19.75 L 29.3125 19.78125 L 33.8125 24.25 C 33.367188 25.019531 33.085938 25.871094 33.03125 26.71875 C 33.03125 26.75 33.03125 26.78125 33.03125 26.8125 C 33.03125 26.835938 33 26.851563 33 26.875 C 33 26.886719 33 26.894531 33 26.90625 C 33 26.9375 33 26.96875 33 27 C 33.003906 27.0625 33.015625 27.125 33.03125 27.1875 C 33.03125 27.199219 33.03125 27.207031 33.03125 27.21875 C 33.03125 27.238281 33.03125 27.261719 33.03125 27.28125 C 33.042969 27.292969 33.050781 27.300781 33.0625 27.3125 C 33.078125 27.367188 33.101563 27.417969 33.125 27.46875 L 34 30.125 L 34 34.40625 C 33.519531 34.585938 32.71875 34.800781 31.4375 35.65625 C 29.808594 36.742188 28 38.496094 28 41 C 28 42.9375 29.238281 44.40625 30.34375 45.375 C 31.449219 46.34375 32.5625 46.90625 32.5625 46.90625 C 32.699219 46.96875 32.847656 47.003906 33 47 L 41 47 C 41.152344 47.003906 41.300781 46.96875 41.4375 46.90625 C 41.4375 46.90625 42.546875 46.371094 43.65625 45.40625 C 44.765625 44.441406 46 42.960938 46 41 C 46 38.496094 44.191406 36.742188 42.5625 35.65625 C 41.28125 34.800781 40.480469 34.585938 40 34.40625 L 40 30.125 L 40.84375 27.53125 C 40.855469 27.519531 40.863281 27.511719 40.875 27.5 L 40.9375 27.3125 C 40.949219 27.28125 40.960938 27.25 40.96875 27.21875 C 40.984375 27.15625 40.996094 27.09375 41 27.03125 C 41 27.019531 41 27.011719 41 27 C 41 26.058594 40.683594 25.105469 40.1875 24.25 L 42.40625 22.03125 L 41 20.625 L 40.28125 21.3125 L 38.90625 22.71875 C 38.628906 22.511719 38.328125 22.339844 38 22.21875 L 38 10 L 42 10 C 42.265625 10.007813 42.527344 9.90625 42.71875 9.71875 L 43.71875 8.71875 C 44.117188 8.320313 44.117188 7.679688 43.71875 7.28125 C 43.320313 6.882813 42.679688 6.882813 42.28125 7.28125 L 41.5625 8 L 38.90625 8 C 38.914063 7.988281 38.929688 7.980469 38.9375 7.96875 C 39.339844 7.425781 39.539063 6.824219 39.6875 6.25 C 39.980469 5.101563 40 4 40 4 C 40 3.449219 39.550781 3 39 3 L 35 3 C 34.96875 3 34.9375 3 34.90625 3 C 34.875 3 34.84375 3 34.8125 3 Z M 36.15625 5 L 37.84375 5 C 37.808594 5.308594 37.84375 5.386719 37.75 5.75 C 37.640625 6.175781 37.496094 6.574219 37.34375 6.78125 C 37.191406 6.988281 37.144531 7 37 7 C 36.855469 7 36.808594 6.988281 36.65625 6.78125 C 36.503906 6.574219 36.359375 6.175781 36.25 5.75 C 36.15625 5.386719 36.191406 5.308594 36.15625 5 Z M 36.9375 24.03125 C 36.96875 24.03125 37 24.03125 37.03125 24.03125 C 37.394531 24.046875 37.894531 24.363281 38.3125 24.96875 C 38.53125 25.28125 38.535156 25.632813 38.65625 26 L 35.34375 26 C 35.464844 25.632813 35.472656 25.28125 35.6875 24.96875 C 36.09375 24.378906 36.578125 24.058594 36.9375 24.03125 Z M 35.375 28 L 38.625 28 L 38.0625 29.6875 C 38.023438 29.789063 38.003906 29.894531 38 30 L 38 35 C 38.003906 35.425781 38.28125 35.804688 38.6875 35.9375 C 38.6875 35.9375 40.066406 36.429688 41.4375 37.34375 C 42.808594 38.257813 44 39.496094 44 41 C 44 42.085938 43.234375 43.101563 42.34375 43.875 C 41.515625 44.59375 40.804688 44.941406 40.6875 45 L 33.3125 45 C 33.195313 44.941406 32.484375 44.601563 31.65625 43.875 C 30.761719 43.089844 30 42.046875 30 41 C 30 39.496094 31.191406 38.257813 32.5625 37.34375 C 33.933594 36.429688 35.3125 35.9375 35.3125 35.9375 C 35.71875 35.804688 35.996094 35.425781 36 35 L 36 30 C 35.996094 29.894531 35.976563 29.789063 35.9375 29.6875 Z"/></svg>