<svg fill="#000000" xmlns="http://www.w3.org/2000/svg"  viewBox="0 0 512 512" width="128px" height="128px"><path d="M361.249 102.219a15.538 15.538 0 0014.042-4.943l14.716-16.267A15.653 15.653 0 00388.9 58.9L352.585 26.045h0a15.668 15.668 0 00-22.107 1.106L315.761 43.418A15.55 15.55 0 00311.735 54.7a15.812 15.812 0 00.478 3.139l-55.067 52.967a54 54 0 00-64.071 12.049L43.023 288.712a23.331 23.331 0 001.646 32.916l80.856 73.151a23.135 23.135 0 0015.608 6.024c.395 0 .793-.01 1.191-.03a23.149 23.149 0 0016.117-7.64L308.493 227.277a54 54 0 005.565-65zm-39-31.828l25.522 23.091-44.377 56.475-32.91-29.774zm19.865-32.247l35.8 32.389-14.25 15.751L327.859 53.9zM161.183 366.253l-40.619-36.748L235.755 202.184l40.618 36.747zm135.445-149.71l-9.521 10.523-46.55-42.115a8 8 0 00-11.3.566L103.333 324.7A8 8 0 00103.9 336l46.55 42.116-3.872 4.279a7.3 7.3 0 01-10.316.516L55.4 309.764a7.314 7.314 0 01-.516-10.318L204.94 133.591a37.955 37.955 0 0153.55-2.679l35.459 32.081a37.913 37.913 0 012.679 53.55zM456.773 386.45a66.549 66.549 0 0018.095-50.189l-6.083-97.69A8.06 8.06 0 00460.8 231H354.807a8.06 8.06 0 00-7.985 7.571l-6.082 97.656A67.22 67.22 0 00400 407.173V474H364a8 8 0 000 16h87a8 8 0 000-16H416V407.123A66.425 66.425 0 00456.773 386.45zm-86.279-10.772a51.065 51.065 0 01-13.786-38.4L362.324 247h90.959l5.616 90.188A51.562 51.562 0 01407.808 392H407.8A50.876 50.876 0 01370.494 375.678z"/></svg>