<svg width="51" height="53" viewBox="0 0 51 53" fill="none" xmlns="http://www.w3.org/2000/svg">
<path d="M37.6326 9.084C37.9305 9.13125 38.2359 9.10475 38.5206 9.00695C38.8054 8.90914 39.0604 8.74316 39.2623 8.52421L40.9704 6.68198C41.1304 6.50935 41.254 6.30764 41.3342 6.08838C41.4144 5.86912 41.4495 5.6366 41.4376 5.4041C41.4256 5.1716 41.3669 4.94367 41.2647 4.73332C41.1625 4.52297 41.0188 4.33432 40.8419 4.17815L36.627 0.457337C36.2695 0.142414 35.7985 -0.0212635 35.3175 0.00221859C34.8365 0.0257007 34.3846 0.234425 34.0611 0.58259L32.353 2.42482C32.1924 2.59707 32.0684 2.79868 31.9882 3.01799C31.908 3.23731 31.8732 3.46996 31.8857 3.7025C31.892 3.82251 31.9106 3.94161 31.9412 4.05799L25.5499 10.0565C24.3273 9.46219 22.9392 9.27388 21.5969 9.5202C20.2545 9.76651 19.0313 10.434 18.1135 11.421L0.697804 30.2042C0.217304 30.7236 -0.0324321 31.4078 0.00338265 32.1066C0.0391974 32.8055 0.357638 33.4619 0.888847 33.932L10.2734 42.2163C10.7688 42.6562 11.415 42.8995 12.0849 42.8985C12.1307 42.8985 12.1769 42.8974 12.2231 42.8951C12.5781 42.8787 12.9262 42.7938 13.2473 42.6453C13.5684 42.4968 13.8561 42.2876 14.0937 42.0299L31.5095 23.2468C32.4251 22.2564 32.9838 21.001 33.1004 19.6721C33.217 18.3431 32.8852 17.0134 32.1554 15.8855L37.6326 9.084ZM33.106 5.4795L36.0682 8.09454L30.9177 14.4903L27.098 11.1184L33.106 5.4795ZM35.4117 1.82754L39.5668 5.49558L37.9129 7.27937L33.7572 3.6119L35.4117 1.82754ZM14.412 38.9857L9.69757 34.824L23.0672 20.405L27.7815 24.5666L14.412 38.9857ZM30.1324 22.0311L29.0273 23.2229L23.6245 18.4534C23.5341 18.3735 23.4284 18.3119 23.3136 18.2719C23.1987 18.2319 23.0769 18.2144 22.9551 18.2204C22.8333 18.2263 22.7139 18.2556 22.6038 18.3066C22.4936 18.3576 22.3948 18.4292 22.313 18.5175L7.69766 34.2799C7.61586 34.3681 7.55267 34.4712 7.51171 34.5833C7.47075 34.6953 7.45281 34.8142 7.45892 34.933C7.46503 35.0519 7.49507 35.1684 7.54733 35.2759C7.59958 35.3834 7.67303 35.4798 7.76347 35.5596L13.1663 40.3292L12.7169 40.8138C12.6422 40.8944 12.552 40.9598 12.4514 41.0064C12.3508 41.053 12.2418 41.0797 12.1306 41.0851C12.0194 41.0906 11.9082 41.0746 11.8034 41.038C11.6985 41.0015 11.6021 40.9452 11.5195 40.8722L2.13434 32.5884C1.96784 32.441 1.86803 32.2352 1.8568 32.0162C1.84557 31.7971 1.92384 31.5827 2.07445 31.4199L19.4906 12.6369C20.2743 11.7936 21.3688 11.288 22.534 11.2311C23.6992 11.1743 24.8399 11.5707 25.7059 12.3335L29.8214 15.9666C30.6868 16.7306 31.2058 17.7987 31.2641 18.936C31.3224 20.0734 30.9153 21.1867 30.1324 22.0311ZM48.7195 41.273C49.4525 40.5182 50.0175 39.6236 50.3789 38.6454C50.7403 37.6672 50.8904 36.6267 50.8197 35.5891L50.1137 24.5258C50.0993 24.2949 49.9956 24.0779 49.8236 23.9188C49.6515 23.7596 49.424 23.6701 49.1869 23.6684H36.8849C36.6478 23.6701 36.4202 23.7596 36.2482 23.9188C36.0762 24.0779 35.9725 24.2949 35.9581 24.5258L35.2522 35.5853C35.128 37.5288 35.7718 39.4448 37.0511 40.9393C38.3305 42.4338 40.1481 43.3931 42.1302 43.6199V51.188H37.9519C37.7056 51.188 37.4694 51.2835 37.2953 51.4534C37.1212 51.6233 37.0233 51.8537 37.0233 52.094C37.0233 52.3343 37.1212 52.5647 37.2953 52.7346C37.4694 52.9045 37.7056 53 37.9519 53H48.0495C48.2957 53 48.5319 52.9045 48.706 52.7346C48.8802 52.5647 48.978 52.3343 48.978 52.094C48.978 51.8537 48.8802 51.6233 48.706 51.4534C48.5319 51.2835 48.2957 51.188 48.0495 51.188H43.9872V43.6142C45.7988 43.4047 47.4757 42.5752 48.7195 41.273ZM38.7056 40.0531C38.1469 39.4745 37.7164 38.7896 37.4411 38.0414C37.1658 37.2932 37.0516 36.4976 37.1055 35.7043L37.7573 25.4804H48.3144L48.9663 35.6941C49.0176 36.4869 48.9026 37.2815 48.6284 38.0294C48.3542 38.7773 47.9264 39.4628 47.3713 40.0439C46.8163 40.6249 46.1455 41.0894 45.4002 41.4088C44.6548 41.7282 43.8505 41.8959 43.0364 41.9016C42.2231 41.901 41.4178 41.7365 40.6727 41.4184C39.9277 41.1004 39.2579 40.6355 38.7056 40.0531Z" fill="#D99453"/>
</svg>
