<svg width="41" height="41" viewBox="0 0 41 41" fill="none" xmlns="http://www.w3.org/2000/svg">
<g clip-path="url(#clip0_2_1308)">
<path d="M15.5786 0C9.96348 0 5.94676 4.79508 5.78981 10.7369C5.7866 10.8554 5.73856 10.9515 5.73856 11.07C5.74496 11.4576 6.02043 11.7907 6.4016 11.8708C6.77957 11.9509 7.16395 11.7555 7.32731 11.4031C9.14668 7.11734 13.7688 5.91297 16.9879 6.91875C14.7778 7.08211 12.5388 7.52734 10.6073 8.7125C7.80457 10.4326 5.73856 13.4275 5.73856 17.63C5.73856 20.705 6.43684 23.5782 8.27543 27.3419C8.4452 27.6654 8.80395 27.8384 9.1595 27.7743C9.51824 27.7102 9.79371 27.422 9.83856 27.06C10.5144 20.8203 13.0993 17.3673 15.9629 15.2981C17.4684 14.2091 19.0507 13.5268 20.4986 13.0687C20.3929 24.9299 16.6612 31.1216 12.9904 34.4144C9.20754 37.8065 5.50793 38.13 5.50793 38.13C5.48231 38.13 5.45668 38.13 5.43106 38.13C2.78528 37.2523 1.27981 36.2337 1.27981 36.2337C1.10364 36.1024 0.88262 36.048 0.664808 36.08C0.338089 36.1409 0.0786359 36.3939 0.0113702 36.7206C-0.0558955 37.0473 0.0818394 37.3805 0.357308 37.5662C0.357308 37.5662 5.25809 41 13.1186 41C15.9597 41 18.3557 40.3626 20.6011 39.6675C20.6491 39.6515 20.7068 39.6579 20.7548 39.6419C20.8349 39.6291 20.9118 39.6034 20.9854 39.565C20.995 39.5618 21.0014 39.5426 21.0111 39.5394C21.2641 39.4593 21.53 39.3888 21.7798 39.3088C24.3583 38.4888 26.7607 37.72 29.5186 37.72C35.0311 37.72 39.7173 40.8462 39.7173 40.8462C39.9511 41.0705 40.2939 41.1345 40.595 41.0096C40.8929 40.8879 41.0914 40.5996 41.1011 40.2761C41.1107 39.9526 40.9313 39.6547 40.6398 39.5137C40.6398 39.5137 35.6493 36.08 29.5186 36.08C26.9753 36.08 24.7747 36.6886 22.6254 37.3612C23.2372 36.1889 23.7241 34.7923 24.1373 33.2612C24.8164 30.7404 25.2616 27.8288 25.5723 24.9844C26.1457 19.7377 26.2289 14.7792 26.2386 12.5306C28.6441 13.0047 30.7165 14.1898 32.2861 16.0156C34.3681 18.4372 35.5757 22.0343 35.2586 26.8294C35.2361 27.1945 35.4539 27.5277 35.7935 27.659C36.1362 27.7871 36.5206 27.6814 36.7448 27.3931C39.4771 23.8345 40.9986 21.2527 40.9986 17.9631C40.9986 13.6998 37.8339 10.7977 34.3617 9.17375C31.8056 7.97898 29.2847 7.5818 27.1354 7.55937C27.1771 7.53055 27.1675 7.51133 27.2123 7.4825C27.9747 7.00844 28.9548 6.60164 30.0823 6.56C30.0887 6.56 30.1015 6.56 30.1079 6.56C32.3309 6.56641 36.0209 7.61062 38.2567 10.0706C38.5065 10.3397 38.9005 10.4166 39.2304 10.2564C39.5604 10.0963 39.7493 9.7407 39.6917 9.37875C39.1407 5.90977 38.0709 3.57469 36.6167 2.07562C35.1625 0.576563 33.3399 0 31.5686 0C27.6159 0 24.5441 2.39273 23.8042 2.99813C21.373 0.784765 18.0354 0 15.5786 0ZM15.5786 1.64C17.8528 1.64 21.184 2.46 23.1636 4.58687C23.4647 4.92 23.9739 4.95203 24.3167 4.66375C24.3167 4.66375 27.9907 1.64 31.5686 1.64C32.9972 1.64 34.2816 2.06281 35.4123 3.22875C36.1939 4.03594 36.8249 5.4325 37.3598 7.175C34.9479 5.56703 32.1419 4.92 30.0823 4.92C30.0727 4.92 30.0663 4.92 30.0567 4.92C28.5704 4.96805 27.2892 5.46453 26.3154 6.07312C25.3417 6.68172 24.6818 7.31594 24.3423 7.995C24.1982 8.28648 24.2334 8.63562 24.4384 8.88867C24.6434 9.14172 24.9765 9.25383 25.2904 9.17375C26.7511 8.8182 30.5211 9.21219 33.6698 10.6856C36.8185 12.1591 39.3586 14.5198 39.3586 17.9631C39.3586 20.058 38.372 21.9606 36.8729 24.19C36.6615 20.3559 35.4956 17.188 33.5417 14.9137C31.1329 12.1078 27.6351 10.66 23.7786 10.66C23.7369 10.6568 23.6921 10.6568 23.6504 10.66C22.9554 10.7625 22.0553 10.9195 21.0623 11.1725C21.0527 11.1725 21.0463 11.1725 21.0367 11.1725C19.2205 11.637 17.0552 12.4473 14.9892 13.94C12.2922 15.8907 9.90262 19.1387 8.76231 24.0362C7.90067 21.7492 7.37856 19.696 7.37856 17.63C7.37856 13.9592 9.07301 11.6241 11.4786 10.1475C13.8841 8.67086 17.0584 8.14875 19.7554 8.45625C20.1046 8.49789 20.4441 8.31211 20.6011 7.995C20.7548 7.68109 20.6939 7.29992 20.4473 7.04688C17.4524 3.97508 11.5586 4.1 7.94231 7.6875C9.057 4.1 11.8854 1.64 15.5786 1.64ZM23.8554 12.3C23.8714 12.3 23.8907 12.3 23.9067 12.3C24.1405 12.3032 24.3711 12.3384 24.5986 12.3512C24.5922 14.4941 24.5313 19.5647 23.9579 24.8306C23.6536 27.6238 23.1924 30.4329 22.5486 32.8256C21.9239 35.1415 21.1039 37.0602 20.1654 38.13C17.9713 38.8027 15.7259 39.36 13.1186 39.36C11.4818 39.36 9.99231 39.2159 8.65981 38.9756C10.2069 38.3895 12.1512 37.3837 14.0923 35.6444C18.1699 31.9896 22.1193 25.1253 22.1386 12.6331C22.776 12.489 23.3654 12.3737 23.8554 12.3Z" fill="#D99453"/>
</g>
<defs>
<clipPath id="clip0_2_1308">
<rect width="41" height="41" fill="white"/>
</clipPath>
</defs>
</svg>
