<svg width="47" height="47" viewBox="0 0 47 47" fill="none" xmlns="http://www.w3.org/2000/svg">
<path d="M24.4792 7.88294V0.979167C24.4792 0.437948 24.0412 0 23.5 0C22.9588 0 22.5208 0.437948 22.5208 0.979167V7.88294C12.1783 8.3981 3.91667 16.9486 3.91667 27.4167C3.91667 38.2152 12.7014 47 23.5 47C34.2986 47 43.0833 38.2152 43.0833 27.4167C43.0833 16.9486 34.8217 8.3981 24.4792 7.88294ZM36.5319 15.5926C35.5617 15.9648 34.4898 16.2913 33.3315 16.5666C32.4711 14.3778 31.3547 12.5071 30.0447 11.0657C32.5426 12.0693 34.7503 13.6308 36.5319 15.5926ZM41.125 27.4167C41.125 29.3969 40.7818 31.2948 40.1768 33.0731C38.9789 34.2294 36.8303 35.2159 34.105 35.9356C34.7952 33.5029 35.1965 30.7861 35.2361 27.8884C37.641 27.1929 39.6065 26.2776 40.9693 25.1954C41.0617 25.9247 41.125 26.6627 41.125 27.4167ZM5.875 27.4167C5.875 26.6628 5.93847 25.9248 6.03074 25.1956C7.39359 26.2776 9.3591 27.1928 11.7639 27.8882C11.8035 30.7859 12.2048 33.5029 12.895 35.9356C10.1688 35.2156 8.02051 34.2283 6.82249 33.071C6.21792 31.2934 5.875 29.3962 5.875 27.4167ZM24.4792 19.5628C27.1455 19.5126 29.7123 19.2669 32.0443 18.8339C32.7448 21.0842 33.1712 23.6385 33.2618 26.356C30.7922 26.9441 27.8253 27.3351 24.4792 27.4003V19.5628ZM24.4792 17.6048V9.88095C27.3014 10.3879 29.7663 13.072 31.3686 16.9718C29.2441 17.3464 26.9082 17.5577 24.4792 17.6048ZM22.5208 9.88095V17.6048C20.0916 17.5578 17.756 17.3461 15.6315 16.9715C17.2338 13.0717 19.6987 10.3879 22.5208 9.88095ZM22.5208 19.5627V27.4008C19.1548 27.3378 16.1945 26.9577 13.7375 26.3795C13.8263 23.6534 14.253 21.0912 14.9555 18.8344C17.2872 19.2672 19.8543 19.5125 22.5208 19.5627ZM11.7958 25.8552C9.18865 25.0401 7.35989 23.9936 6.47598 22.9295C7.02927 20.8336 7.95286 18.8918 9.18339 17.1764C10.3334 17.6575 11.6186 18.0779 13.0306 18.4216C12.3473 20.6697 11.9175 23.1775 11.7958 25.8552ZM13.7357 28.3876C16.3406 28.9613 19.3254 29.3011 22.5208 29.3596V37.18C19.8941 37.1261 17.368 36.8688 15.1021 36.433C14.3105 34.0535 13.8251 31.3174 13.7357 28.3876ZM22.5208 39.1383V44.9524C19.8706 44.4763 17.5287 42.0895 15.9263 38.5708C17.9789 38.8994 20.1948 39.0948 22.5208 39.1383ZM24.4792 44.9524V39.1383C26.805 39.0947 29.0211 38.8993 31.0738 38.5706C29.4715 42.0895 27.1296 44.4763 24.4792 44.9524ZM24.4792 37.18V29.3596C27.6751 29.3011 30.6599 28.9614 33.2643 28.3879C33.1749 31.3176 32.6895 34.0538 31.8979 36.4331C29.6317 36.8689 27.1057 37.1261 24.4792 37.18ZM35.2034 25.8271C35.08 23.1597 34.6503 20.6616 33.9693 18.4212C35.3809 18.0773 36.6663 17.6568 37.8161 17.1757C39.0469 18.891 39.9707 20.8332 40.524 22.9293C39.6499 23.9677 37.8094 25.0086 35.2034 25.8271ZM16.9553 11.0657C15.6452 12.5071 14.5288 14.3779 13.6684 16.5669C12.5101 16.2918 11.438 15.9654 10.4676 15.5932C12.2493 13.6312 14.4572 12.0694 16.9553 11.0657ZM8.36499 36.4019C9.83063 37.1031 11.619 37.6787 13.6187 38.1286C14.4859 40.3754 15.6184 42.2967 16.9553 43.7676C13.3469 42.3178 10.3358 39.7082 8.36499 36.4019ZM30.0447 43.7676C31.3816 42.2966 32.5143 40.3753 33.3814 38.1282C35.3811 37.6782 37.1698 37.1027 38.6353 36.4014C36.6646 39.708 33.6532 42.3178 30.0447 43.7676ZM35.9681 5.83962C36.9396 6.10832 36.975 6.1437 37.2437 7.11521C37.3613 7.53977 37.7467 7.83333 38.1875 7.83333C38.6283 7.83333 39.0137 7.53977 39.1313 7.11521C39.4 6.1437 39.4354 6.10832 40.4069 5.83962C40.8314 5.72201 41.125 5.33665 41.125 4.89583C41.125 4.45502 40.8314 4.06966 40.4069 3.95205C39.4354 3.68335 39.4 3.64797 39.1313 2.67645C38.8961 1.82733 37.4789 1.82733 37.2437 2.67645C36.975 3.64797 36.9396 3.68335 35.9681 3.95205C35.5436 4.06966 35.25 4.45502 35.25 4.89583C35.25 5.33665 35.5436 5.72201 35.9681 5.83962ZM5.15688 43.1187C4.18536 42.85 4.14998 42.8146 3.88129 41.8431C3.64606 40.994 2.22894 40.994 1.99371 41.8431C1.72502 42.8146 1.68964 42.85 0.718119 43.1187C0.293559 43.2363 0 43.6217 0 44.0625C0 44.5033 0.293559 44.8887 0.718119 45.0063C1.68964 45.275 1.72502 45.3104 1.99371 46.2819C2.11133 46.7064 2.49668 47 2.9375 47C3.37832 47 3.76367 46.7064 3.88129 46.2819C4.14998 45.3104 4.18536 45.275 5.15688 45.0063C5.58144 44.8887 5.875 44.5033 5.875 44.0625C5.875 43.6217 5.58144 43.2363 5.15688 43.1187ZM46.2819 10.8062C46.149 10.7699 46.0706 10.7421 46.062 10.7488C46.0467 10.7125 46.0218 10.6417 45.9855 10.5098C45.7502 9.66066 44.3331 9.66066 44.0979 10.5098C44.0615 10.6417 44.0367 10.7125 44.0405 10.7297C44.0042 10.745 43.9334 10.7699 43.8015 10.8062C43.3769 10.9238 43.0833 11.3101 43.0833 11.75C43.0833 12.1899 43.3769 12.5762 43.8015 12.6938C43.9344 12.7301 44.007 12.7435 44.0214 12.7512C44.0367 12.7875 44.0615 12.8583 44.0979 12.9902C44.2155 13.4148 44.6018 13.7083 45.0417 13.7083C45.4815 13.7083 45.8678 13.4148 45.9855 12.9902C46.0218 12.8583 46.0467 12.7875 46.0428 12.7703C46.0792 12.755 46.1499 12.7301 46.2819 12.6938C46.7064 12.5762 47 12.1899 47 11.75C47 11.3101 46.7064 10.9238 46.2819 10.8062Z" fill="white"/>
</svg>
