<svg width="29" height="29" viewBox="0 0 29 29" fill="none" xmlns="http://www.w3.org/2000/svg">
<g id="Iconly/Light/Filter">
<g id="Filter">
<path id="Stroke 1" d="M12.267 19.7041H4.78491" stroke="white" stroke-width="1.5" stroke-linecap="round" stroke-linejoin="round"/>
<path id="Stroke 3" d="M15.6042 8.1942H23.0864" stroke="white" stroke-width="1.5" stroke-linecap="round" stroke-linejoin="round"/>
<path id="Stroke 5" fill-rule="evenodd" clip-rule="evenodd" d="M10.3625 8.12993C10.3625 6.59133 9.1059 5.34375 7.55623 5.34375C6.00657 5.34375 4.75 6.59133 4.75 8.12993C4.75 9.66852 6.00657 10.9161 7.55623 10.9161C9.1059 10.9161 10.3625 9.66852 10.3625 8.12993Z" stroke="white" stroke-width="1.5" stroke-linecap="round" stroke-linejoin="round"/>
<path id="Stroke 7" fill-rule="evenodd" clip-rule="evenodd" d="M23.7502 19.6576C23.7502 18.119 22.4946 16.8714 20.9449 16.8714C19.3943 16.8714 18.1377 18.119 18.1377 19.6576C18.1377 21.1962 19.3943 22.4438 20.9449 22.4438C22.4946 22.4438 23.7502 21.1962 23.7502 19.6576Z" stroke="white" stroke-width="1.5" stroke-linecap="round" stroke-linejoin="round"/>
</g>
</g>
</svg>
