<svg width="48" height="50" viewBox="0 0 48 50" fill="none" xmlns="http://www.w3.org/2000/svg">
<path d="M34.99 0.359985C34.4562 0.460611 34.0712 0.933111 34.08 1.47999C34.08 1.47999 34.1019 2.71374 34.43 3.99999C34.5962 4.64311 34.8194 5.31686 35.27 5.92499C35.2787 5.93811 35.2962 5.94686 35.305 5.95999H32.33L31.525 5.15499C31.2537 4.87499 30.8556 4.75686 30.475 4.83999C30.055 4.91436 29.7181 5.22061 29.6 5.62749C29.4819 6.03874 29.6044 6.47624 29.915 6.76499L31.035 7.88499C31.2494 8.09499 31.5425 8.20874 31.84 8.19999H36.32V21.885C35.9525 22.0206 35.6156 22.2131 35.305 22.445L30.37 17.51C30.3569 17.4969 30.3481 17.4881 30.335 17.475C30.335 17.475 29.9762 17.1425 29.46 16.81C28.9437 16.4775 28.2787 16.075 27.36 16.075C26.5594 16.075 25.8506 16.5519 25.4 17.125C24.9494 17.6981 24.6431 18.3719 24.385 19.19C23.8687 20.8306 23.5537 23.0225 23.335 25.595C22.8931 30.7444 22.88 37.4687 22.88 44.075C22.88 44.075 22.88 44.9762 22.46 45.825C22.04 46.6737 21.41 47.435 19.52 47.435C17.63 47.435 17 46.6475 16.58 45.79C16.16 44.9325 16.16 44.04 16.16 44.04V13.8C16.16 10.6719 13.6487 8.19999 10.56 8.19999C10.5731 7.87624 10.4419 7.56561 10.21 7.34686C9.97373 7.12374 9.65436 7.01436 9.33498 7.04499C9.28686 7.05374 9.23873 7.06686 9.19498 7.07999C8.67436 7.19811 8.30686 7.66624 8.31998 8.19999H0.47998V10.44H8.31998C8.31561 10.8425 8.52561 11.2187 8.87561 11.4244C9.22561 11.6256 9.65436 11.6256 10.0044 11.4244C10.3544 11.2187 10.5644 10.8425 10.56 10.44C12.5112 10.44 13.92 11.8181 13.92 13.8V44.04C13.92 44.04 13.8981 45.405 14.585 46.805C15.2719 48.205 16.8862 49.675 19.52 49.675C22.1537 49.675 23.7681 48.1962 24.455 46.805C25.1419 45.4137 25.12 44.075 25.12 44.075C25.12 37.4775 25.1462 30.7575 25.575 25.77C25.7894 23.2762 26.1 21.2287 26.52 19.89C26.73 19.2206 26.9706 18.7175 27.15 18.49C27.3294 18.2625 27.3469 18.315 27.36 18.315C27.4475 18.315 27.885 18.4725 28.235 18.7C28.5631 18.91 28.7644 19.0937 28.795 19.12L28.83 19.155L33.87 24.16C33.3712 25.0219 33.0562 25.9756 32.995 26.925C32.995 26.96 32.995 26.995 32.995 27.03C32.995 27.0562 32.96 27.0737 32.96 27.1C32.96 27.1131 32.96 27.1219 32.96 27.135C32.96 27.17 32.96 27.205 32.96 27.24C32.9644 27.31 32.9775 27.38 32.995 27.45C32.995 27.4631 32.995 27.4719 32.995 27.485C32.995 27.5069 32.995 27.5331 32.995 27.555C33.0081 27.5681 33.0169 27.5769 33.03 27.59C33.0475 27.6512 33.0737 27.7081 33.1 27.765L34.08 30.74V35.535C33.5419 35.7362 32.645 35.9769 31.21 36.935C29.3856 38.1512 27.36 40.1156 27.36 42.92C27.36 45.09 28.7469 46.735 29.985 47.82C31.2231 48.905 32.47 49.535 32.47 49.535C32.6231 49.605 32.7894 49.6444 32.96 49.64H41.92C42.0906 49.6444 42.2569 49.605 42.41 49.535C42.41 49.535 43.6525 48.9356 44.895 47.855C46.1375 46.7744 47.52 45.1162 47.52 42.92C47.52 40.1156 45.4944 38.1512 43.67 36.935C42.235 35.9769 41.3381 35.7362 40.8 35.535V30.74L41.745 27.835C41.7581 27.8219 41.7669 27.8131 41.78 27.8L41.85 27.59C41.8631 27.555 41.8762 27.52 41.885 27.485C41.9025 27.415 41.9156 27.345 41.92 27.275C41.92 27.2619 41.92 27.2531 41.92 27.24C41.92 26.1856 41.5656 25.1181 41.01 24.16L43.495 21.675L41.92 20.1L41.115 20.87L39.575 22.445C39.2644 22.2131 38.9275 22.0206 38.56 21.885V8.19999H43.04C43.3375 8.20874 43.6306 8.09499 43.845 7.88499L44.965 6.76499C45.4112 6.31874 45.4112 5.60124 44.965 5.15499C44.5187 4.70874 43.8012 4.70874 43.355 5.15499L42.55 5.95999H39.575C39.5837 5.94686 39.6012 5.93811 39.61 5.92499C40.0606 5.31686 40.2837 4.64311 40.45 3.99999C40.7781 2.71374 40.8 1.47999 40.8 1.47999C40.8 0.863111 40.2969 0.359985 39.68 0.359985H35.2C35.165 0.359985 35.13 0.359985 35.095 0.359985C35.06 0.359985 35.025 0.359985 34.99 0.359985ZM36.495 2.59999H38.385C38.3456 2.94561 38.385 3.03311 38.28 3.43999C38.1575 3.91686 37.9956 4.36311 37.825 4.59499C37.6544 4.82686 37.6019 4.83999 37.44 4.83999C37.2781 4.83999 37.2256 4.82686 37.055 4.59499C36.8844 4.36311 36.7225 3.91686 36.6 3.43999C36.495 3.03311 36.5344 2.94561 36.495 2.59999ZM37.37 23.915C37.405 23.915 37.44 23.915 37.475 23.915C37.8819 23.9325 38.4419 24.2869 38.91 24.965C39.155 25.315 39.1594 25.7087 39.295 26.12H35.585C35.7206 25.7087 35.7294 25.315 35.97 24.965C36.425 24.3044 36.9675 23.9456 37.37 23.915ZM35.62 28.36H39.26L38.63 30.25C38.5862 30.3637 38.5644 30.4819 38.56 30.6V36.2C38.5644 36.6769 38.875 37.1012 39.33 37.25C39.33 37.25 40.8744 37.8012 42.41 38.825C43.9456 39.8487 45.28 41.2356 45.28 42.92C45.28 44.1362 44.4225 45.2737 43.425 46.14C42.4975 46.945 41.7012 47.3344 41.57 47.4H33.31C33.1787 47.3344 32.3825 46.9537 31.455 46.14C30.4531 45.2606 29.6 44.0925 29.6 42.92C29.6 41.2356 30.9344 39.8487 32.47 38.825C34.0056 37.8012 35.55 37.25 35.55 37.25C36.005 37.1012 36.3156 36.6769 36.32 36.2V30.6C36.3156 30.4819 36.2937 30.3637 36.25 30.25L35.62 28.36Z" fill="#D99453"/>
<defs>
<linearGradient id="paint0_linear_2_1312" x1="24" y1="0.359985" x2="24" y2="49.675" gradientUnits="userSpaceOnUse">
<stop stop-color="#D99453"/>
<stop offset="1" stop-color="#9C6D42"/>
</linearGradient>
</defs>
</svg>
