<svg width="60" height="39" viewBox="0 0 60 39" fill="none" xmlns="http://www.w3.org/2000/svg">
<path d="M9.85234 0.450012L15.9484 11.344L11.0775 24.084L6.33613 25.2494L3.57031 37.3852C3.51719 37.5977 3.54707 37.8235 3.65664 38.0127C3.73301 38.4178 4.08828 38.7067 4.5 38.7C5.63223 38.7 6.58184 38.1854 7.43184 37.7604C8.28184 37.3354 9.03223 37 9.6 37C10.1678 37 10.9182 37.3354 11.7682 37.7604C12.6182 38.1854 13.5678 38.7 14.7 38.7C15.8322 38.7 16.7818 38.1854 17.6318 37.7604C18.4818 37.3354 19.2322 37 19.8 37C20.3678 37 21.1182 37.3354 21.9682 37.7604C22.8182 38.1854 23.7678 38.7 24.9 38.7C26.0322 38.7 26.9818 38.1854 27.8318 37.7604C28.6818 37.3354 29.4322 37 30 37C30.5678 37 31.3182 37.3354 32.1682 37.7604C33.0182 38.1854 33.9678 38.7 35.1 38.7C36.2322 38.7 37.1818 38.1854 38.0318 37.7604C38.8818 37.3354 39.6322 37 40.2 37C40.7678 37 41.5182 37.3354 42.3682 37.7604C43.2182 38.1854 44.1678 38.7 45.3 38.7C46.4322 38.7 47.3818 38.1854 48.2318 37.7604C49.0818 37.3354 49.8322 37 50.4 37C50.9678 37 51.7182 37.3354 52.5682 37.7604C53.4182 38.1854 54.3678 38.7 55.5 38.7C55.8055 38.7033 56.091 38.544 56.2471 38.2783C56.3998 38.0127 56.3998 37.6873 56.2471 37.4217C56.091 37.1561 55.8055 36.9967 55.5 37C54.9322 37 54.1818 36.6647 53.3318 36.2397C52.6811 35.9143 51.9738 35.5391 51.1736 35.3797C53.8133 32.501 59.75 24.7647 59.75 13.2V12.1143L53.6041 13.625C53.5443 13.5686 53.4779 13.5221 53.4016 13.4822L36.0961 4.67013L24.1662 6.37345L14.8561 0.450012H9.85234ZM12.751 2.15001H14.3613L21.5797 6.74533L20.9521 6.83497C19.2488 7.07736 17.7646 8.05021 16.8383 9.45138L12.751 2.15001ZM35.8039 6.4299L51.1305 14.236L13.083 23.5893L17.6053 11.7756C17.6783 11.666 17.7248 11.5432 17.7414 11.4137L17.8211 11.2078C18.3756 9.76349 19.6605 8.73419 21.1912 8.51505L35.8039 6.4299ZM39.6654 10.1818L39.3666 10.1951L39.2836 10.2117L38.6959 10.6998L38.7324 11.4602L39.3633 11.8852L39.6654 11.8719L39.7484 11.852L40.3328 11.3672L40.2963 10.6068L39.6654 10.1818ZM36.2687 10.9588L35.9699 10.9721L35.8869 10.9953L35.2992 11.4768L35.3357 12.2404L35.9666 12.6654L36.2687 12.6522L36.3484 12.6289L36.9361 12.1475L36.8996 11.3838L36.2687 10.9588ZM32.8721 11.7391L32.5732 11.7524L32.4902 11.7723L31.9025 12.257L31.9391 13.0174L32.5732 13.4424L32.8688 13.4291L32.9518 13.4092L33.5428 12.9244L33.5029 12.1641L32.8721 11.7391ZM29.4754 12.5193L29.1766 12.5326L29.0936 12.5492L28.5059 13.0373L28.5424 13.7977L29.1766 14.2227L29.4721 14.2094L29.5584 14.1895L30.1461 13.7047L30.1063 12.9443L29.4754 12.5193ZM26.0787 13.2963L25.7799 13.3096L25.6969 13.3328L25.1092 13.8143L25.1457 14.5779L25.7766 15.0029L26.0787 14.9897L26.1617 14.9664L26.7461 14.485L26.7096 13.7213L26.0787 13.2963ZM22.682 14.0766L22.3832 14.0899L22.3002 14.1098L21.7125 14.5945L21.749 15.3549L22.3799 15.7799L22.682 15.7666L22.7617 15.7467L23.3494 15.2619L23.3129 14.5016L22.682 14.0766ZM57.9604 14.3057C57.4756 27.6832 48.7797 35.4063 48.7797 35.4063C48.6668 35.4926 48.5805 35.6088 48.5273 35.7416C48.1588 35.901 47.8035 36.0736 47.4682 36.2397C46.6182 36.6647 45.8678 37 45.3 37C44.7322 37 43.9818 36.6647 43.1318 36.2397C42.2818 35.8147 41.3322 35.3 40.2 35.3C39.0678 35.3 38.1182 35.8147 37.2682 36.2397C36.4182 36.6647 35.6678 37 35.1 37C34.5322 37 33.7818 36.6647 32.9318 36.2397C32.0818 35.8147 31.1322 35.3 30 35.3C28.8678 35.3 27.9182 35.8147 27.0682 36.2397C26.2182 36.6647 25.4678 37 24.9 37C24.3322 37 23.5818 36.6647 22.7318 36.2397C21.8818 35.8147 20.9322 35.3 19.8 35.3C18.6678 35.3 17.7182 35.8147 16.8682 36.2397C16.0182 36.6647 15.2678 37 14.7 37C14.1322 37 13.3818 36.6647 12.5318 36.2397C11.6818 35.8147 10.7322 35.3 9.6 35.3C8.46777 35.3 7.51816 35.8147 6.66816 36.2397C6.2332 36.4588 5.82149 36.6514 5.44961 36.7875L7.76387 26.6506L57.9604 14.3057ZM19.2854 14.8568L18.9865 14.8701L18.9035 14.8867L18.3158 15.3748L18.3523 16.1352L18.9832 16.5602L19.282 16.5469L19.365 16.527L19.9527 16.0422L19.9162 15.2818L19.2854 14.8568ZM55.002 18.8943L54.7031 18.9109L54.6201 18.9309L54.0391 19.4223L54.0822 20.1826L54.7197 20.601L55.0186 20.5844L55.1016 20.5645L55.6859 20.0697L55.6361 19.3127L55.002 18.8943ZM51.6119 19.7111L51.3164 19.7311L51.2334 19.7477L50.6523 20.2391L50.6955 20.9994L51.333 21.4211L51.6318 21.4012L51.7148 21.3813L52.2959 20.8899L52.2494 20.1295L51.6119 19.7111ZM48.2252 20.5279L47.9297 20.5445L47.8467 20.5678L47.2623 21.0592L47.3088 21.8195L47.943 22.2346L48.2451 22.218L48.3281 22.1981L48.9092 21.7067L48.8627 20.9463L48.2252 20.5279ZM44.8385 21.3447L44.5396 21.3647L44.4566 21.3813L43.8756 21.8727L43.9188 22.633L44.5563 23.0547L44.8584 23.0381L44.9381 23.0149L45.5225 22.5235L45.4727 21.7664L44.8385 21.3447ZM41.4518 22.1649L41.1529 22.1815L41.0699 22.2014L40.4889 22.6928L40.532 23.4531L41.1695 23.8715L41.4684 23.8516L41.5514 23.835L42.1324 23.3436L42.0859 22.5799L41.4518 22.1649ZM38.0617 22.9783L37.7662 22.9983L37.6799 23.0182L37.1021 23.5096L37.1453 24.2699L37.7828 24.6883L38.0783 24.6717L38.1646 24.6518L38.7457 24.1604L38.6992 23.4L38.0617 22.9783ZM34.675 23.7985L34.3762 23.8151L34.2932 23.8383L33.7121 24.3297L33.7586 25.0867L34.3961 25.5084L34.6916 25.4885L34.7746 25.4686L35.3557 24.9772L35.3125 24.2168L34.675 23.7985ZM31.2883 24.6152L30.9895 24.6352L30.9064 24.6518L30.3221 25.1432L30.3719 25.9068L31.0061 26.3219L31.3049 26.3086L31.3879 26.2854L31.9689 25.794L31.9258 25.0336L31.2883 24.6152ZM27.9016 25.432L27.5994 25.452L27.5164 25.4719L26.9354 25.9633L26.9818 26.7236L27.6193 27.142L27.9148 27.1221L27.9979 27.1055L28.5822 26.6141L28.5357 25.8537L27.9016 25.432ZM24.5115 26.2522L24.2127 26.2688L24.1297 26.2887L23.5486 26.7801L23.5951 27.5404L24.2326 27.9588L24.5281 27.9422L24.6111 27.919L25.1922 27.4276L25.149 26.6672L24.5115 26.2522ZM21.1248 27.069L20.826 27.0856L20.743 27.1055L20.1586 27.5969L20.2084 28.3572L20.8426 28.7789L21.1414 28.759L21.2244 28.7391L21.8055 28.2477L21.7623 27.4873L21.1248 27.069ZM17.7381 27.8858L17.4359 27.9024L17.3563 27.9256L16.7719 28.417L16.8184 29.1774L17.4525 29.5924L17.7547 29.5758L17.8344 29.5559L18.4188 29.0645L18.3723 28.3041L17.7381 27.8858ZM14.3514 28.7026L14.0492 28.7225L13.9695 28.7391L13.3852 29.2305L13.4316 29.9908L14.0658 30.4125L14.368 30.3959L14.4477 30.3727L15.032 29.8813L14.9855 29.1242L14.3514 28.7026ZM10.9613 29.5227L10.6625 29.5393L10.5795 29.5592L9.99844 30.0506L10.0416 30.811L10.6791 31.2293L10.9779 31.2094L11.0609 31.1928L11.6453 30.7014L11.5955 29.9377L10.9613 29.5227ZM1.1 37C0.631836 37 0.25 37.3819 0.25 37.85C0.25 38.3182 0.631836 38.7 1.1 38.7C1.56816 38.7 1.95 38.3182 1.95 37.85C1.95 37.3819 1.56816 37 1.1 37ZM58.9 37C58.4318 37 58.05 37.3819 58.05 37.85C58.05 38.3182 58.4318 38.7 58.9 38.7C59.3682 38.7 59.75 38.3182 59.75 37.85C59.75 37.3819 59.3682 37 58.9 37Z" fill="#989898"/>
</svg>
