<svg width="38" height="44" viewBox="0 0 38 44" fill="none" xmlns="http://www.w3.org/2000/svg">
<path d="M22.0846 0.525024L21.906 1.05178C21.906 1.05178 17.2499 14.8111 4.23535 26.2938L2.70049 27.65H22.575V29.975H5.525C4.25049 29.975 3.2 31.0255 3.2 32.3C3.2 33.2748 3.89326 33.959 4.75 34.3011V35.8783L5.17686 36.0933C5.17686 36.0933 8.7582 38.0035 9.91465 40.8674C9.74814 40.8432 9.57559 40.825 9.4 40.825C8.36768 40.825 7.50186 41.2943 6.72686 41.6818C5.95186 42.0693 5.26768 42.375 4.75 42.375C4.47148 42.372 4.21113 42.5173 4.06885 42.7595C3.92959 43.0017 3.92959 43.2984 4.06885 43.5405C4.21113 43.7827 4.47148 43.928 4.75 43.925C5.78232 43.925 6.64814 43.4558 7.42314 43.0683C8.19814 42.6808 8.88232 42.375 9.4 42.375C9.91768 42.375 10.6019 42.6808 11.3769 43.0683C12.1519 43.4558 13.0177 43.925 14.05 43.925C15.0823 43.925 15.9481 43.4558 16.7231 43.0683C17.4981 42.6808 18.1823 42.375 18.7 42.375C19.2177 42.375 19.9019 42.6808 20.6769 43.0683C21.4519 43.4558 22.3177 43.925 23.35 43.925C24.3823 43.925 25.2481 43.4558 26.0231 43.0683C26.7981 42.6808 27.4823 42.375 28 42.375C28.5177 42.375 29.2019 42.6808 29.9769 43.0683C30.7519 43.4558 31.6177 43.925 32.65 43.925C33.6823 43.925 34.5481 43.4558 35.3231 43.0683C36.0981 42.6808 36.7823 42.375 37.3 42.375C37.8177 42.375 38.5019 42.6808 39.2769 43.0683C40.0519 43.4558 40.9177 43.925 41.95 43.925C42.9823 43.925 43.8481 43.4558 44.6231 43.0683C45.3981 42.6808 46.0823 42.375 46.6 42.375C47.1177 42.375 47.8019 42.6808 48.5769 43.0683C49.3519 43.4558 50.2177 43.925 51.25 43.925C51.5285 43.928 51.7889 43.7827 51.9312 43.5405C52.0704 43.2984 52.0704 43.0017 51.9312 42.7595C51.7889 42.5173 51.5285 42.372 51.25 42.375C50.7323 42.375 50.0481 42.0693 49.2731 41.6818C48.4981 41.2943 47.6323 40.825 46.6 40.825C45.5677 40.825 44.7019 41.2943 43.9269 41.6818C43.1519 42.0693 42.4677 42.375 41.95 42.375C41.6806 42.375 41.3657 42.2903 41.0176 42.1571C42.6645 40.9613 45.9007 38.3275 48.1106 34.625H48.15C49.4245 34.625 50.475 33.5745 50.475 32.3C50.475 31.0255 49.4245 29.975 48.15 29.975H24.125V0.525024H22.0846ZM25.2754 0.525024L25.8203 1.63909C25.8203 1.63909 28 6.09534 28 14.0028C28 22.0797 25.7567 26.5269 25.7567 26.5269L25.1967 27.65H44.387L44.2659 26.7691C41.8925 9.34368 27.6276 0.637036 27.6276 0.637036L27.443 0.525024H25.2754ZM27.7911 2.6593C30.1706 4.28196 40.1941 11.8745 42.5312 26.1H27.5308C28.0787 24.8164 29.55 21.0201 29.55 14.0028C29.55 7.82698 28.445 4.39094 27.7911 2.6593ZM22.575 3.55237V26.1H6.6542C16.2115 17.1239 20.9433 7.46975 22.575 3.55237ZM5.525 31.525H23.2198C23.3046 31.5402 23.3894 31.5402 23.4711 31.525H48.15C48.589 31.525 48.925 31.8611 48.925 32.3C48.925 32.739 48.589 33.075 48.15 33.075H47.263L47.039 33.4716C44.4748 38.0489 40.0458 40.9794 39.3949 41.3942C38.7713 41.0945 38.0841 40.825 37.3 40.825C36.2677 40.825 35.4019 41.2943 34.6269 41.6818C33.8519 42.0693 33.1677 42.375 32.65 42.375C32.1323 42.375 31.4481 42.0693 30.6731 41.6818C29.8981 41.2943 29.0323 40.825 28 40.825C26.9677 40.825 26.1019 41.2943 25.3269 41.6818C24.5519 42.0693 23.8677 42.375 23.35 42.375C22.8323 42.375 22.1481 42.0693 21.3731 41.6818C20.5981 41.2943 19.7323 40.825 18.7 40.825C17.6677 40.825 16.8019 41.2943 16.0269 41.6818C15.2519 42.0693 14.5677 42.375 14.05 42.375C13.5323 42.375 12.8481 42.0693 12.0731 41.6818C11.9581 41.6242 11.837 41.5667 11.722 41.5062C11.7189 41.488 11.7129 41.4668 11.7099 41.4487C10.9016 37.4132 6.99629 35.3455 6.3 34.9913V33.075H5.525C5.08604 33.075 4.75 32.739 4.75 32.3C4.75 31.8611 5.08604 31.525 5.525 31.525ZM7.85 33.075C7.42314 33.075 7.075 33.4232 7.075 33.85C7.075 34.2769 7.42314 34.625 7.85 34.625C8.27685 34.625 8.625 34.2769 8.625 33.85C8.625 33.4232 8.27685 33.075 7.85 33.075ZM10.95 33.075C10.5231 33.075 10.175 33.4232 10.175 33.85C10.175 34.2769 10.5231 34.625 10.95 34.625C11.3769 34.625 11.725 34.2769 11.725 33.85C11.725 33.4232 11.3769 33.075 10.95 33.075ZM14.05 33.075C13.6231 33.075 13.275 33.4232 13.275 33.85C13.275 34.2769 13.6231 34.625 14.05 34.625C14.4769 34.625 14.825 34.2769 14.825 33.85C14.825 33.4232 14.4769 33.075 14.05 33.075ZM17.15 33.075C16.7231 33.075 16.375 33.4232 16.375 33.85C16.375 34.2769 16.7231 34.625 17.15 34.625C17.5769 34.625 17.925 34.2769 17.925 33.85C17.925 33.4232 17.5769 33.075 17.15 33.075ZM20.25 33.075C19.8231 33.075 19.475 33.4232 19.475 33.85C19.475 34.2769 19.8231 34.625 20.25 34.625C20.6769 34.625 21.025 34.2769 21.025 33.85C21.025 33.4232 20.6769 33.075 20.25 33.075ZM23.35 33.075C22.9231 33.075 22.575 33.4232 22.575 33.85C22.575 34.2769 22.9231 34.625 23.35 34.625C23.7769 34.625 24.125 34.2769 24.125 33.85C24.125 33.4232 23.7769 33.075 23.35 33.075ZM26.45 33.075C26.0231 33.075 25.675 33.4232 25.675 33.85C25.675 34.2769 26.0231 34.625 26.45 34.625C26.8769 34.625 27.225 34.2769 27.225 33.85C27.225 33.4232 26.8769 33.075 26.45 33.075ZM29.55 33.075C29.1231 33.075 28.775 33.4232 28.775 33.85C28.775 34.2769 29.1231 34.625 29.55 34.625C29.9769 34.625 30.325 34.2769 30.325 33.85C30.325 33.4232 29.9769 33.075 29.55 33.075ZM32.65 33.075C32.2231 33.075 31.875 33.4232 31.875 33.85C31.875 34.2769 32.2231 34.625 32.65 34.625C33.0769 34.625 33.425 34.2769 33.425 33.85C33.425 33.4232 33.0769 33.075 32.65 33.075ZM35.75 33.075C35.3231 33.075 34.975 33.4232 34.975 33.85C34.975 34.2769 35.3231 34.625 35.75 34.625C36.1769 34.625 36.525 34.2769 36.525 33.85C36.525 33.4232 36.1769 33.075 35.75 33.075ZM38.85 33.075C38.4231 33.075 38.075 33.4232 38.075 33.85C38.075 34.2769 38.4231 34.625 38.85 34.625C39.2769 34.625 39.625 34.2769 39.625 33.85C39.625 33.4232 39.2769 33.075 38.85 33.075ZM41.95 33.075C41.5231 33.075 41.175 33.4232 41.175 33.85C41.175 34.2769 41.5231 34.625 41.95 34.625C42.3769 34.625 42.725 34.2769 42.725 33.85C42.725 33.4232 42.3769 33.075 41.95 33.075ZM45.05 33.075C44.6231 33.075 44.275 33.4232 44.275 33.85C44.275 34.2769 44.6231 34.625 45.05 34.625C45.4769 34.625 45.825 34.2769 45.825 33.85C45.825 33.4232 45.4769 33.075 45.05 33.075ZM1.65 42.375C1.22314 42.375 0.875 42.7232 0.875 43.15C0.875 43.5769 1.22314 43.925 1.65 43.925C2.07686 43.925 2.425 43.5769 2.425 43.15C2.425 42.7232 2.07686 42.375 1.65 42.375ZM54.35 42.375C53.9231 42.375 53.575 42.7232 53.575 43.15C53.575 43.5769 53.9231 43.925 54.35 43.925C54.7769 43.925 55.125 43.5769 55.125 43.15C55.125 42.7232 54.7769 42.375 54.35 42.375Z" fill="#989898"/>
</svg>
