<svg width="55" height="38" viewBox="0 0 55 38" fill="none" xmlns="http://www.w3.org/2000/svg">
<path d="M7.47505 0.325012L8.30186 6.1213L3.41592 17.2875H0.212402V29.5052L0.569629 29.7213C0.569629 29.7213 3.89414 31.7379 5.32593 35.725C4.92837 35.7538 4.623 36.088 4.6374 36.4856C4.64893 36.886 4.97734 37.2 5.3749 37.2C6.35728 37.2 7.1812 36.7535 7.9187 36.3847C8.6562 36.016 9.30727 35.725 9.7999 35.725C10.2925 35.725 10.9436 36.016 11.6811 36.3847C12.4186 36.7535 13.2425 37.2 14.2249 37.2C15.2073 37.2 16.0312 36.7535 16.7687 36.3847C17.5062 36.016 18.1573 35.725 18.6499 35.725C19.1425 35.725 19.7936 36.016 20.5311 36.3847C21.2686 36.7535 22.0925 37.2 23.0749 37.2C24.0573 37.2 24.8812 36.7535 25.6187 36.3847C26.3562 36.016 27.0073 35.725 27.4999 35.725C27.9925 35.725 28.6436 36.016 29.3811 36.3847C30.1186 36.7535 30.9425 37.2 31.9249 37.2C32.9073 37.2 33.7312 36.7535 34.4687 36.3847C35.2062 36.016 35.8573 35.725 36.3499 35.725C36.8425 35.725 37.4936 36.016 38.2311 36.3847C38.9686 36.7535 39.7925 37.2 40.7749 37.2C41.7573 37.2 42.5812 36.7535 43.3187 36.3847C44.0562 36.016 44.7073 35.725 45.1999 35.725C45.6925 35.725 46.3436 36.016 47.0811 36.3847C47.8186 36.7535 48.6425 37.2 49.6249 37.2C49.8899 37.2029 50.1377 37.0646 50.2731 36.8341C50.4056 36.6037 50.4056 36.3214 50.2731 36.0909C50.1377 35.8604 49.8899 35.7221 49.6249 35.725C49.1323 35.725 48.4812 35.434 47.7437 35.0653C47.5449 34.9673 47.3404 34.8636 47.1272 34.7657C48.8384 32.8067 53.5457 26.7684 54.7788 18.1287L54.8998 17.2875H46.3666L37.5138 1.80001H24.0515L22.5765 5.48751H17.5552L13.8677 0.325012H7.47505ZM9.17476 1.80001H13.1071L15.7431 5.48751H9.70195L9.17476 1.80001ZM25.0483 3.27501H36.661L38.0438 5.7007C37.9056 5.83898 37.8249 6.02911 37.8249 6.22501C37.8249 6.63121 38.1562 6.96251 38.5624 6.96251C38.6258 6.96251 38.6892 6.95387 38.7497 6.93658L41.3107 11.4163C40.9938 11.5056 40.7749 11.7966 40.7749 12.125C40.7749 12.5312 41.1062 12.8625 41.5124 12.8625C41.7025 12.8625 41.884 12.7876 42.0194 12.658L44.6669 17.2875H44.618C43.7739 17.2875 42.9586 17.4949 42.2355 17.8752C42.1635 17.5324 41.861 17.2875 41.5124 17.2875C41.1062 17.2875 40.7749 17.6188 40.7749 18.025C40.7749 18.2814 40.9074 18.5176 41.1235 18.6502C40.8239 18.9267 40.5531 19.2407 40.3226 19.5864L38.9052 21.7125H12.3581L9.65298 18.4658C9.74805 18.339 9.7999 18.1835 9.7999 18.025C9.7999 17.6188 9.4686 17.2875 9.0624 17.2875C8.95005 17.2875 8.8377 17.3134 8.73687 17.3653L8.6706 17.2875H5.0292L9.54639 6.96251H23.5733L23.5906 6.92794C23.6626 6.95099 23.7375 6.96251 23.8124 6.96251C24.2186 6.96251 24.5499 6.63121 24.5499 6.22501C24.5499 5.94269 24.3886 5.68629 24.1351 5.56241L25.0483 3.27501ZM26.7624 5.48751C26.3562 5.48751 26.0249 5.81881 26.0249 6.22501C26.0249 6.63121 26.3562 6.96251 26.7624 6.96251C27.1686 6.96251 27.4999 6.63121 27.4999 6.22501C27.4999 5.81881 27.1686 5.48751 26.7624 5.48751ZM29.7124 5.48751C29.3062 5.48751 28.9749 5.81881 28.9749 6.22501C28.9749 6.63121 29.3062 6.96251 29.7124 6.96251C30.1186 6.96251 30.4499 6.63121 30.4499 6.22501C30.4499 5.81881 30.1186 5.48751 29.7124 5.48751ZM32.6624 5.48751C32.2562 5.48751 31.9249 5.81881 31.9249 6.22501C31.9249 6.63121 32.2562 6.96251 32.6624 6.96251C33.0686 6.96251 33.3999 6.63121 33.3999 6.22501C33.3999 5.81881 33.0686 5.48751 32.6624 5.48751ZM35.6124 5.48751C35.2062 5.48751 34.8749 5.81881 34.8749 6.22501C34.8749 6.63121 35.2062 6.96251 35.6124 6.96251C36.0186 6.96251 36.3499 6.63121 36.3499 6.22501C36.3499 5.81881 36.0186 5.48751 35.6124 5.48751ZM9.0624 11.3875C8.6562 11.3875 8.3249 11.7188 8.3249 12.125C8.3249 12.5312 8.6562 12.8625 9.0624 12.8625C9.4686 12.8625 9.7999 12.5312 9.7999 12.125C9.7999 11.7188 9.4686 11.3875 9.0624 11.3875ZM12.0124 11.3875C11.6062 11.3875 11.2749 11.7188 11.2749 12.125C11.2749 12.5312 11.6062 12.8625 12.0124 12.8625C12.4186 12.8625 12.7499 12.5312 12.7499 12.125C12.7499 11.7188 12.4186 11.3875 12.0124 11.3875ZM14.9624 11.3875C14.5562 11.3875 14.2249 11.7188 14.2249 12.125C14.2249 12.5312 14.5562 12.8625 14.9624 12.8625C15.3686 12.8625 15.6999 12.5312 15.6999 12.125C15.6999 11.7188 15.3686 11.3875 14.9624 11.3875ZM17.9124 11.3875C17.5062 11.3875 17.1749 11.7188 17.1749 12.125C17.1749 12.5312 17.5062 12.8625 17.9124 12.8625C18.3186 12.8625 18.6499 12.5312 18.6499 12.125C18.6499 11.7188 18.3186 11.3875 17.9124 11.3875ZM20.8624 11.3875C20.4562 11.3875 20.1249 11.7188 20.1249 12.125C20.1249 12.5312 20.4562 12.8625 20.8624 12.8625C21.2686 12.8625 21.5999 12.5312 21.5999 12.125C21.5999 11.7188 21.2686 11.3875 20.8624 11.3875ZM23.8124 11.3875C23.4062 11.3875 23.0749 11.7188 23.0749 12.125C23.0749 12.5312 23.4062 12.8625 23.8124 12.8625C24.2186 12.8625 24.5499 12.5312 24.5499 12.125C24.5499 11.7188 24.2186 11.3875 23.8124 11.3875ZM26.7624 11.3875C26.3562 11.3875 26.0249 11.7188 26.0249 12.125C26.0249 12.5312 26.3562 12.8625 26.7624 12.8625C27.1686 12.8625 27.4999 12.5312 27.4999 12.125C27.4999 11.7188 27.1686 11.3875 26.7624 11.3875ZM29.7124 11.3875C29.3062 11.3875 28.9749 11.7188 28.9749 12.125C28.9749 12.5312 29.3062 12.8625 29.7124 12.8625C30.1186 12.8625 30.4499 12.5312 30.4499 12.125C30.4499 11.7188 30.1186 11.3875 29.7124 11.3875ZM32.6624 11.3875C32.2562 11.3875 31.9249 11.7188 31.9249 12.125C31.9249 12.5312 32.2562 12.8625 32.6624 12.8625C33.0686 12.8625 33.3999 12.5312 33.3999 12.125C33.3999 11.7188 33.0686 11.3875 32.6624 11.3875ZM35.6124 11.3875C35.2062 11.3875 34.8749 11.7188 34.8749 12.125C34.8749 12.5312 35.2062 12.8625 35.6124 12.8625C36.0186 12.8625 36.3499 12.5312 36.3499 12.125C36.3499 11.7188 36.0186 11.3875 35.6124 11.3875ZM38.5624 11.3875C38.1562 11.3875 37.8249 11.7188 37.8249 12.125C37.8249 12.5312 38.1562 12.8625 38.5624 12.8625C38.9686 12.8625 39.2999 12.5312 39.2999 12.125C39.2999 11.7188 38.9686 11.3875 38.5624 11.3875ZM12.0124 17.2875C11.6062 17.2875 11.2749 17.6188 11.2749 18.025C11.2749 18.4312 11.6062 18.7625 12.0124 18.7625C12.4186 18.7625 12.7499 18.4312 12.7499 18.025C12.7499 17.6188 12.4186 17.2875 12.0124 17.2875ZM14.9624 17.2875C14.5562 17.2875 14.2249 17.6188 14.2249 18.025C14.2249 18.4312 14.5562 18.7625 14.9624 18.7625C15.3686 18.7625 15.6999 18.4312 15.6999 18.025C15.6999 17.6188 15.3686 17.2875 14.9624 17.2875ZM17.9124 17.2875C17.5062 17.2875 17.1749 17.6188 17.1749 18.025C17.1749 18.4312 17.5062 18.7625 17.9124 18.7625C18.3186 18.7625 18.6499 18.4312 18.6499 18.025C18.6499 17.6188 18.3186 17.2875 17.9124 17.2875ZM20.8624 17.2875C20.4562 17.2875 20.1249 17.6188 20.1249 18.025C20.1249 18.4312 20.4562 18.7625 20.8624 18.7625C21.2686 18.7625 21.5999 18.4312 21.5999 18.025C21.5999 17.6188 21.2686 17.2875 20.8624 17.2875ZM23.8124 17.2875C23.4062 17.2875 23.0749 17.6188 23.0749 18.025C23.0749 18.4312 23.4062 18.7625 23.8124 18.7625C24.2186 18.7625 24.5499 18.4312 24.5499 18.025C24.5499 17.6188 24.2186 17.2875 23.8124 17.2875ZM26.7624 17.2875C26.3562 17.2875 26.0249 17.6188 26.0249 18.025C26.0249 18.4312 26.3562 18.7625 26.7624 18.7625C27.1686 18.7625 27.4999 18.4312 27.4999 18.025C27.4999 17.6188 27.1686 17.2875 26.7624 17.2875ZM29.7124 17.2875C29.3062 17.2875 28.9749 17.6188 28.9749 18.025C28.9749 18.4312 29.3062 18.7625 29.7124 18.7625C30.1186 18.7625 30.4499 18.4312 30.4499 18.025C30.4499 17.6188 30.1186 17.2875 29.7124 17.2875ZM32.6624 17.2875C32.2562 17.2875 31.9249 17.6188 31.9249 18.025C31.9249 18.4312 32.2562 18.7625 32.6624 18.7625C33.0686 18.7625 33.3999 18.4312 33.3999 18.025C33.3999 17.6188 33.0686 17.2875 32.6624 17.2875ZM35.6124 17.2875C35.2062 17.2875 34.8749 17.6188 34.8749 18.025C34.8749 18.4312 35.2062 18.7625 35.6124 18.7625C36.0186 18.7625 36.3499 18.4312 36.3499 18.025C36.3499 17.6188 36.0186 17.2875 35.6124 17.2875ZM38.5624 17.2875C38.1562 17.2875 37.8249 17.6188 37.8249 18.025C37.8249 18.4312 38.1562 18.7625 38.5624 18.7625C38.9686 18.7625 39.2999 18.4312 39.2999 18.025C39.2999 17.6188 38.9686 17.2875 38.5624 17.2875ZM1.6874 18.7625H3.72705C3.83364 18.7884 3.946 18.7884 4.05547 18.7625H7.9792L11.6667 23.1875H39.6946L41.5499 20.4046C42.2355 19.379 43.385 18.7625 44.618 18.7625H53.1424C51.6127 27.5174 46.4617 33.3454 45.5946 34.2759C45.4649 34.2615 45.3353 34.25 45.1999 34.25C44.2175 34.25 43.3936 34.6965 42.6561 35.0653C41.9186 35.434 41.2675 35.725 40.7749 35.725C40.2823 35.725 39.6312 35.434 38.8937 35.0653C38.1562 34.6965 37.3323 34.25 36.3499 34.25C35.3675 34.25 34.5436 34.6965 33.8061 35.0653C33.0686 35.434 32.4175 35.725 31.9249 35.725C31.4323 35.725 30.7812 35.434 30.0437 35.0653C29.3062 34.6965 28.4823 34.25 27.4999 34.25C26.5175 34.25 25.6936 34.6965 24.9561 35.0653C24.2186 35.434 23.5675 35.725 23.0749 35.725C22.5823 35.725 21.9312 35.434 21.1937 35.0653C20.4562 34.6965 19.6323 34.25 18.6499 34.25C17.6675 34.25 16.8436 34.6965 16.1061 35.0653C15.3686 35.434 14.7175 35.725 14.2249 35.725C13.7323 35.725 13.0812 35.434 12.3437 35.0653C11.6062 34.6965 10.7823 34.25 9.7999 34.25C8.81753 34.25 7.9936 34.6965 7.2561 35.0653C7.07461 35.1575 6.91328 35.2209 6.74331 35.2986C5.27695 31.1214 2.23765 29.099 1.6874 28.7476V18.7625ZM4.6374 21.7125C4.2312 21.7125 3.8999 22.0438 3.8999 22.45C3.8999 22.8562 4.2312 23.1875 4.6374 23.1875C5.0436 23.1875 5.3749 22.8562 5.3749 22.45C5.3749 22.0438 5.0436 21.7125 4.6374 21.7125ZM7.5874 21.7125C7.1812 21.7125 6.8499 22.0438 6.8499 22.45C6.8499 22.8562 7.1812 23.1875 7.5874 23.1875C7.9936 23.1875 8.3249 22.8562 8.3249 22.45C8.3249 22.0438 7.9936 21.7125 7.5874 21.7125ZM42.9874 21.7125C42.5812 21.7125 42.2499 22.0438 42.2499 22.45C42.2499 22.8562 42.5812 23.1875 42.9874 23.1875C43.3936 23.1875 43.7249 22.8562 43.7249 22.45C43.7249 22.0438 43.3936 21.7125 42.9874 21.7125ZM45.9374 21.7125C45.5312 21.7125 45.1999 22.0438 45.1999 22.45C45.1999 22.8562 45.5312 23.1875 45.9374 23.1875C46.3436 23.1875 46.6749 22.8562 46.6749 22.45C46.6749 22.0438 46.3436 21.7125 45.9374 21.7125ZM48.8874 21.7125C48.4812 21.7125 48.1499 22.0438 48.1499 22.45C48.1499 22.8562 48.4812 23.1875 48.8874 23.1875C49.2936 23.1875 49.6249 22.8562 49.6249 22.45C49.6249 22.0438 49.2936 21.7125 48.8874 21.7125ZM4.6374 25.4C4.2312 25.4 3.8999 25.7313 3.8999 26.1375C3.8999 26.5437 4.2312 26.875 4.6374 26.875C5.0436 26.875 5.3749 26.5437 5.3749 26.1375C5.3749 25.7313 5.0436 25.4 4.6374 25.4ZM7.5874 25.4C7.1812 25.4 6.8499 25.7313 6.8499 26.1375C6.8499 26.5437 7.1812 26.875 7.5874 26.875C7.9936 26.875 8.3249 26.5437 8.3249 26.1375C8.3249 25.7313 7.9936 25.4 7.5874 25.4ZM10.5374 25.4C10.1312 25.4 9.7999 25.7313 9.7999 26.1375C9.7999 26.5437 10.1312 26.875 10.5374 26.875C10.9436 26.875 11.2749 26.5437 11.2749 26.1375C11.2749 25.7313 10.9436 25.4 10.5374 25.4ZM13.4874 25.4C13.0812 25.4 12.7499 25.7313 12.7499 26.1375C12.7499 26.5437 13.0812 26.875 13.4874 26.875C13.8936 26.875 14.2249 26.5437 14.2249 26.1375C14.2249 25.7313 13.8936 25.4 13.4874 25.4ZM16.4374 25.4C16.0312 25.4 15.6999 25.7313 15.6999 26.1375C15.6999 26.5437 16.0312 26.875 16.4374 26.875C16.8436 26.875 17.1749 26.5437 17.1749 26.1375C17.1749 25.7313 16.8436 25.4 16.4374 25.4ZM19.3874 25.4C18.9812 25.4 18.6499 25.7313 18.6499 26.1375C18.6499 26.5437 18.9812 26.875 19.3874 26.875C19.7936 26.875 20.1249 26.5437 20.1249 26.1375C20.1249 25.7313 19.7936 25.4 19.3874 25.4ZM22.3374 25.4C21.9312 25.4 21.5999 25.7313 21.5999 26.1375C21.5999 26.5437 21.9312 26.875 22.3374 26.875C22.7436 26.875 23.0749 26.5437 23.0749 26.1375C23.0749 25.7313 22.7436 25.4 22.3374 25.4ZM25.2874 25.4C24.8812 25.4 24.5499 25.7313 24.5499 26.1375C24.5499 26.5437 24.8812 26.875 25.2874 26.875C25.6936 26.875 26.0249 26.5437 26.0249 26.1375C26.0249 25.7313 25.6936 25.4 25.2874 25.4ZM28.2374 25.4C27.8312 25.4 27.4999 25.7313 27.4999 26.1375C27.4999 26.5437 27.8312 26.875 28.2374 26.875C28.6436 26.875 28.9749 26.5437 28.9749 26.1375C28.9749 25.7313 28.6436 25.4 28.2374 25.4ZM31.1874 25.4C30.7812 25.4 30.4499 25.7313 30.4499 26.1375C30.4499 26.5437 30.7812 26.875 31.1874 26.875C31.5936 26.875 31.9249 26.5437 31.9249 26.1375C31.9249 25.7313 31.5936 25.4 31.1874 25.4ZM34.1374 25.4C33.7312 25.4 33.3999 25.7313 33.3999 26.1375C33.3999 26.5437 33.7312 26.875 34.1374 26.875C34.5436 26.875 34.8749 26.5437 34.8749 26.1375C34.8749 25.7313 34.5436 25.4 34.1374 25.4ZM37.0874 25.4C36.6812 25.4 36.3499 25.7313 36.3499 26.1375C36.3499 26.5437 36.6812 26.875 37.0874 26.875C37.4936 26.875 37.8249 26.5437 37.8249 26.1375C37.8249 25.7313 37.4936 25.4 37.0874 25.4ZM40.0374 25.4C39.6312 25.4 39.2999 25.7313 39.2999 26.1375C39.2999 26.5437 39.6312 26.875 40.0374 26.875C40.4436 26.875 40.7749 26.5437 40.7749 26.1375C40.7749 25.7313 40.4436 25.4 40.0374 25.4ZM42.9874 25.4C42.5812 25.4 42.2499 25.7313 42.2499 26.1375C42.2499 26.5437 42.5812 26.875 42.9874 26.875C43.3936 26.875 43.7249 26.5437 43.7249 26.1375C43.7249 25.7313 43.3936 25.4 42.9874 25.4ZM45.9374 25.4C45.5312 25.4 45.1999 25.7313 45.1999 26.1375C45.1999 26.5437 45.5312 26.875 45.9374 26.875C46.3436 26.875 46.6749 26.5437 46.6749 26.1375C46.6749 25.7313 46.3436 25.4 45.9374 25.4ZM2.4249 35.725C2.0187 35.725 1.6874 36.0563 1.6874 36.4625C1.6874 36.8687 2.0187 37.2 2.4249 37.2C2.8311 37.2 3.1624 36.8687 3.1624 36.4625C3.1624 36.0563 2.8311 35.725 2.4249 35.725ZM52.5749 35.725C52.1687 35.725 51.8374 36.0563 51.8374 36.4625C51.8374 36.8687 52.1687 37.2 52.5749 37.2C52.9811 37.2 53.3124 36.8687 53.3124 36.4625C53.3124 36.0563 52.9811 35.725 52.5749 35.725Z" fill="white"/>
</svg>
