<svg width="45" height="45" viewBox="0 0 45 45" fill="none" xmlns="http://www.w3.org/2000/svg">
<path d="M43.4562 33.7484H11.2016V31.0029C11.2016 30.5004 11.6104 30.0917 12.1128 30.0917H30.1609C30.5357 30.0917 30.8678 30.3165 31.0069 30.6645C31.1608 31.0492 31.5973 31.2362 31.982 31.0824C33.1371 30.6203 31.9582 28.5916 30.1609 28.5916H21.3281V3.85808C30.6137 6.40422 36.9095 14.8516 36.5159 24.6534H26.2037C25.2127 24.6534 25.2113 26.1536 26.2037 26.1536H37.2229C37.6142 26.1536 37.9399 25.8527 37.9706 25.4625C38.8046 14.8941 31.9976 5.00518 21.328 2.30677V0.743834C21.328 -0.247241 19.8278 -0.248648 19.8278 0.743834V2.80503C17.5654 11.6629 12.0557 19.6361 3.81087 24.7667C3.17309 25.1636 3.45457 26.1536 4.2072 26.1536H19.8279V28.5915H12.1128C10.7832 28.5915 9.70144 29.6732 9.70144 31.0029V33.7484H3.04426C1.80349 33.7484 0.793945 34.758 0.793945 35.9988V39.3742C0.793945 39.7885 1.1298 40.1243 1.54405 40.1243H12.8894C13.8805 40.1243 13.8819 38.6241 12.8894 38.6241H2.29415V35.9988C2.29415 35.5852 2.63067 35.2486 3.04426 35.2486H42.6751C42.2925 39.8623 38.4154 43.4998 33.7048 43.4998H3.04426C2.05318 43.4998 2.05178 45 3.04426 45H33.7048C39.4953 45 44.2063 40.2891 44.2063 34.4985C44.2063 34.0843 43.8704 33.7484 43.4562 33.7484ZM6.67795 24.6534C12.6197 20.3923 17.137 14.5459 19.8279 7.67743V24.6534H6.67795ZM18.2339 40.1243C17.2428 40.1243 17.2414 38.6241 18.2339 38.6241H20.6717C21.6628 38.6241 21.6642 40.1243 20.6717 40.1243H18.2339Z" fill="#989898"/>
</svg>
