<svg width="26" height="26" viewBox="0 0 26 26" fill="none" xmlns="http://www.w3.org/2000/svg">
<path fill-rule="evenodd" clip-rule="evenodd" d="M24.9023 17.6251C25.5589 17.3709 26 16.7238 26 16.0149V12.735C26 11.7629 25.2091 10.972 24.237 10.972H24.057C24.5906 10.2811 24.5414 9.28202 23.9081 8.64862L21.5889 6.32939C21.0877 5.82819 20.3183 5.68254 19.6742 5.96701C19.3282 6.11986 18.9161 6.04272 18.6486 5.77522C18.3811 5.50767 18.3039 5.09548 18.4567 4.74956C18.7412 4.10551 18.5956 3.33598 18.0943 2.83473L15.7752 0.515505C15.0879 -0.171784 13.9694 -0.171886 13.282 0.515505L2.82589 10.972H1.763C0.790859 10.972 0 11.7629 0 12.735V16.0149C0 16.7238 0.441133 17.3709 1.09771 17.6251C1.45034 17.7617 1.6873 18.1076 1.6873 18.486C1.6873 18.8643 1.45034 19.2103 1.09771 19.3468C0.441133 19.6012 0 20.2483 0 20.9571V24.2369C0 25.2091 0.790859 26 1.763 26H24.237C25.2091 26 26 25.2091 26 24.2369V20.9571C26 20.2483 25.5589 19.6012 24.9023 19.3468C24.5497 19.2103 24.3127 18.8643 24.3127 18.486C24.3127 18.1076 24.5497 17.7617 24.9023 17.6251ZM14.3634 1.59709C14.4545 1.50598 14.6027 1.50598 14.6938 1.59704L17.0129 3.91626C17.0709 3.97433 17.0889 4.06085 17.0576 4.13166C16.6517 5.05092 16.8564 6.14606 17.5671 6.8567C18.2777 7.56739 19.3729 7.77208 20.2921 7.36611C20.3628 7.33491 20.4494 7.35286 20.5075 7.41093L22.8266 9.7301C22.9177 9.82121 22.9177 9.96946 22.8266 10.0605L21.9151 10.972H17.9304L11.4596 4.50098L14.3634 1.59709ZM15.7675 10.972L10.3781 5.58246L4.98874 10.972H15.7675ZM1.52941 24.2369V20.9571C1.52941 20.875 1.57789 20.8011 1.65003 20.7731C2.5871 20.4102 3.21666 19.4911 3.21666 18.486C3.21666 17.4809 2.58705 16.5617 1.64993 16.1988C1.57784 16.1709 1.52941 16.097 1.52941 16.0149V12.735C1.52941 12.6063 1.63423 12.5014 1.763 12.5014H19.1176V24.4705H1.763C1.63423 24.4705 1.52941 24.3658 1.52941 24.2369ZM24.35 16.1989C24.4222 16.1709 24.4706 16.097 24.4706 16.0149V12.735C24.4706 12.6063 24.3658 12.5014 24.237 12.5014H20.6471V24.4705H24.237C24.3658 24.4705 24.4706 24.3657 24.4706 24.2369V20.9571C24.4706 20.875 24.4221 20.8011 24.35 20.7731C23.4129 20.4102 22.7833 19.4911 22.7833 18.486C22.7833 17.4809 23.4129 16.5618 24.35 16.1989Z" fill="white"/>
<path d="M5.36505 14.6508H16.9206V16.0952H5.36505V14.6508Z" fill="white"/>
<path d="M5.36505 17.5397H16.9206V18.9841H5.36505V17.5397Z" fill="white"/>
<path d="M5.36505 20.6349H16.9206V22.0794H5.36505V20.6349Z" fill="white"/>
</svg>
