<svg width="13" height="13" viewBox="0 0 13 13" fill="none" xmlns="http://www.w3.org/2000/svg">
<path d="M6.58665 5.88808C6.53248 5.88266 6.46748 5.88266 6.4079 5.88808C5.11873 5.84475 4.09498 4.7885 4.09498 3.4885C4.09498 2.16141 5.16748 1.0835 6.49998 1.0835C7.82706 1.0835 8.90498 2.16141 8.90498 3.4885C8.89956 4.7885 7.87581 5.84475 6.58665 5.88808Z" stroke="#B9B9B9" stroke-width="0.5" stroke-linecap="round" stroke-linejoin="round"/>
<path d="M3.87834 7.8865C2.56751 8.764 2.56751 10.194 3.87834 11.0661C5.36793 12.0628 7.81084 12.0628 9.30043 11.0661C10.6113 10.1886 10.6113 8.75859 9.30043 7.8865C7.81626 6.89525 5.37334 6.89525 3.87834 7.8865Z" stroke="#B9B9B9" stroke-width="0.5" stroke-linecap="round" stroke-linejoin="round"/>
</svg>
