<svg width="14" height="14" viewBox="0 0 14 14" fill="none" xmlns="http://www.w3.org/2000/svg">
<path d="M10.4999 4.17667C10.4649 4.17084 10.424 4.17084 10.389 4.17667C9.58405 4.1475 8.94238 3.48834 8.94238 2.67167C8.94238 1.8375 9.61322 1.16667 10.4474 1.16667C11.2815 1.16667 11.9524 1.84334 11.9524 2.67167C11.9465 3.48834 11.3049 4.1475 10.4999 4.17667Z" stroke="#B9B9B9" stroke-width="0.5" stroke-linecap="round" stroke-linejoin="round"/>
<path d="M9.89909 8.42337C10.6983 8.55753 11.5791 8.41753 12.1974 8.00337C13.0199 7.45503 13.0199 6.5567 12.1974 6.00837C11.5733 5.5942 10.6808 5.4542 9.88159 5.5942" stroke="#B9B9B9" stroke-width="0.5" stroke-linecap="round" stroke-linejoin="round"/>
<path d="M3.48253 4.17667C3.51753 4.17084 3.55836 4.17084 3.59336 4.17667C4.39836 4.1475 5.04003 3.48834 5.04003 2.67167C5.04003 1.8375 4.3692 1.16667 3.53503 1.16667C2.70086 1.16667 2.03003 1.84334 2.03003 2.67167C2.03586 3.48834 2.67753 4.1475 3.48253 4.17667Z" stroke="#B9B9B9" stroke-width="0.5" stroke-linecap="round" stroke-linejoin="round"/>
<path d="M4.08342 8.42337C3.28425 8.55753 2.40342 8.41753 1.78509 8.00337C0.962588 7.45503 0.962588 6.5567 1.78509 6.00837C2.40925 5.5942 3.30175 5.4542 4.10092 5.5942" stroke="#B9B9B9" stroke-width="0.5" stroke-linecap="round" stroke-linejoin="round"/>
<path d="M6.99988 8.53418C6.96488 8.52835 6.92405 8.52835 6.88905 8.53418C6.08405 8.50502 5.44238 7.84585 5.44238 7.02918C5.44238 6.19502 6.11322 5.52418 6.94738 5.52418C7.78155 5.52418 8.45238 6.20085 8.45238 7.02918C8.44655 7.84585 7.80488 8.51085 6.99988 8.53418Z" stroke="#B9B9B9" stroke-width="0.5" stroke-linecap="round" stroke-linejoin="round"/>
<path d="M5.30242 10.3717C4.47992 10.92 4.47992 11.8184 5.30242 12.3667C6.23576 12.9909 7.76409 12.9909 8.69742 12.3667C9.51992 11.8184 9.51992 10.92 8.69742 10.3717C7.76992 9.75338 6.23576 9.75338 5.30242 10.3717Z" stroke="#B9B9B9" stroke-width="0.5" stroke-linecap="round" stroke-linejoin="round"/>
</svg>
