<svg width="13" height="7" viewBox="0 0 13 7" fill="none" xmlns="http://www.w3.org/2000/svg">
<path d="M3.19316 0.40438C3.13426 0.412505 3.07941 0.441958 3.03879 0.48563L0.203164 3.31313L0.0244141 3.50001L0.203164 3.68688L3.03879 6.51438C3.10176 6.59157 3.2023 6.62712 3.2998 6.60477C3.39629 6.58243 3.47246 6.50626 3.4948 6.40977C3.51715 6.31227 3.4816 6.21172 3.40441 6.14876L1.02379 3.76001H11.9763L9.59566 6.14876C9.51848 6.21172 9.48293 6.31227 9.50527 6.40977C9.52762 6.50626 9.60379 6.58243 9.70027 6.60477C9.79777 6.62712 9.89832 6.59157 9.96129 6.51438L12.7969 3.68688L12.9757 3.50001L12.7969 3.31313L9.96129 0.48563C9.90746 0.42774 9.82926 0.398287 9.75004 0.40438C9.64848 0.414537 9.56215 0.482583 9.52965 0.578052C9.49613 0.674537 9.52254 0.781177 9.59566 0.851255L11.9763 3.24001H1.02379L3.40441 0.851255C3.48566 0.774068 3.50902 0.653208 3.46129 0.551646C3.41254 0.449068 3.30488 0.390162 3.19316 0.40438Z" fill="#B9B9B9"/>
</svg>
