<svg width="15" height="10" viewBox="0 0 15 10" fill="none" xmlns="http://www.w3.org/2000/svg">
<path d="M2.40894 0.625L2.61914 2.09863L1.37695 4.9375H0.5625V8.0437L0.65332 8.09863C0.65332 8.09863 1.49854 8.61133 1.86255 9.625C1.76147 9.63232 1.68384 9.71729 1.6875 9.81836C1.69043 9.92017 1.77393 10 1.875 10C2.12476 10 2.33423 9.88647 2.52173 9.79272C2.70923 9.69897 2.87476 9.625 3 9.625C3.12524 9.625 3.29077 9.69897 3.47827 9.79272C3.66577 9.88647 3.87524 10 4.125 10C4.37476 10 4.58423 9.88647 4.77173 9.79272C4.95923 9.69897 5.12476 9.625 5.25 9.625C5.37524 9.625 5.54077 9.69897 5.72827 9.79272C5.91577 9.88647 6.12524 10 6.375 10C6.62476 10 6.83423 9.88647 7.02173 9.79272C7.20923 9.69897 7.37476 9.625 7.5 9.625C7.62524 9.625 7.79077 9.69897 7.97827 9.79272C8.16577 9.88647 8.37524 10 8.625 10C8.87476 10 9.08423 9.88647 9.27173 9.79272C9.45923 9.69897 9.62476 9.625 9.75 9.625C9.87524 9.625 10.0408 9.69897 10.2283 9.79272C10.4158 9.88647 10.6252 10 10.875 10C11.1248 10 11.3342 9.88647 11.5217 9.79272C11.7092 9.69897 11.8748 9.625 12 9.625C12.1252 9.625 12.2908 9.69897 12.4783 9.79272C12.6658 9.88647 12.8752 10 13.125 10C13.1924 10.0007 13.2554 9.96558 13.2898 9.90698C13.3235 9.84839 13.3235 9.77661 13.2898 9.71802C13.2554 9.65942 13.1924 9.62427 13.125 9.625C12.9998 9.625 12.8342 9.55103 12.6467 9.45728C12.5962 9.43237 12.5442 9.40601 12.49 9.3811C12.925 8.88306 14.1218 7.3479 14.4353 5.15137L14.4661 4.9375H12.2966L10.0459 1H6.62329L6.24829 1.9375H4.97168L4.03418 0.625H2.40894ZM2.84106 1H3.84082L4.51099 1.9375H2.9751L2.84106 1ZM6.87671 1.375H9.8291L10.1807 1.9917C10.1455 2.02686 10.125 2.0752 10.125 2.125C10.125 2.22827 10.2092 2.3125 10.3125 2.3125C10.3286 2.3125 10.3447 2.3103 10.3601 2.30591L11.0112 3.44482C10.9307 3.46753 10.875 3.5415 10.875 3.625C10.875 3.72827 10.9592 3.8125 11.0625 3.8125C11.1108 3.8125 11.157 3.79346 11.1914 3.7605L11.8645 4.9375H11.8521C11.6375 4.9375 11.4302 4.99023 11.2463 5.08691C11.228 4.99976 11.1511 4.9375 11.0625 4.9375C10.9592 4.9375 10.875 5.02173 10.875 5.125C10.875 5.19019 10.9087 5.25024 10.9636 5.28394C10.8875 5.35425 10.8186 5.43408 10.76 5.52197L10.3997 6.0625H3.65039L2.96265 5.23706C2.98682 5.20483 3 5.16528 3 5.125C3 5.02173 2.91577 4.9375 2.8125 4.9375C2.78394 4.9375 2.75537 4.94409 2.72974 4.95728L2.71289 4.9375H1.78711L2.93555 2.3125H6.50171L6.5061 2.30371C6.52441 2.30957 6.54346 2.3125 6.5625 2.3125C6.66577 2.3125 6.75 2.22827 6.75 2.125C6.75 2.05322 6.70898 1.98804 6.64453 1.95654L6.87671 1.375ZM7.3125 1.9375C7.20923 1.9375 7.125 2.02173 7.125 2.125C7.125 2.22827 7.20923 2.3125 7.3125 2.3125C7.41577 2.3125 7.5 2.22827 7.5 2.125C7.5 2.02173 7.41577 1.9375 7.3125 1.9375ZM8.0625 1.9375C7.95923 1.9375 7.875 2.02173 7.875 2.125C7.875 2.22827 7.95923 2.3125 8.0625 2.3125C8.16577 2.3125 8.25 2.22827 8.25 2.125C8.25 2.02173 8.16577 1.9375 8.0625 1.9375ZM8.8125 1.9375C8.70923 1.9375 8.625 2.02173 8.625 2.125C8.625 2.22827 8.70923 2.3125 8.8125 2.3125C8.91577 2.3125 9 2.22827 9 2.125C9 2.02173 8.91577 1.9375 8.8125 1.9375ZM9.5625 1.9375C9.45923 1.9375 9.375 2.02173 9.375 2.125C9.375 2.22827 9.45923 2.3125 9.5625 2.3125C9.66577 2.3125 9.75 2.22827 9.75 2.125C9.75 2.02173 9.66577 1.9375 9.5625 1.9375ZM2.8125 3.4375C2.70923 3.4375 2.625 3.52173 2.625 3.625C2.625 3.72827 2.70923 3.8125 2.8125 3.8125C2.91577 3.8125 3 3.72827 3 3.625C3 3.52173 2.91577 3.4375 2.8125 3.4375ZM3.5625 3.4375C3.45923 3.4375 3.375 3.52173 3.375 3.625C3.375 3.72827 3.45923 3.8125 3.5625 3.8125C3.66577 3.8125 3.75 3.72827 3.75 3.625C3.75 3.52173 3.66577 3.4375 3.5625 3.4375ZM4.3125 3.4375C4.20923 3.4375 4.125 3.52173 4.125 3.625C4.125 3.72827 4.20923 3.8125 4.3125 3.8125C4.41577 3.8125 4.5 3.72827 4.5 3.625C4.5 3.52173 4.41577 3.4375 4.3125 3.4375ZM5.0625 3.4375C4.95923 3.4375 4.875 3.52173 4.875 3.625C4.875 3.72827 4.95923 3.8125 5.0625 3.8125C5.16577 3.8125 5.25 3.72827 5.25 3.625C5.25 3.52173 5.16577 3.4375 5.0625 3.4375ZM5.8125 3.4375C5.70923 3.4375 5.625 3.52173 5.625 3.625C5.625 3.72827 5.70923 3.8125 5.8125 3.8125C5.91577 3.8125 6 3.72827 6 3.625C6 3.52173 5.91577 3.4375 5.8125 3.4375ZM6.5625 3.4375C6.45923 3.4375 6.375 3.52173 6.375 3.625C6.375 3.72827 6.45923 3.8125 6.5625 3.8125C6.66577 3.8125 6.75 3.72827 6.75 3.625C6.75 3.52173 6.66577 3.4375 6.5625 3.4375ZM7.3125 3.4375C7.20923 3.4375 7.125 3.52173 7.125 3.625C7.125 3.72827 7.20923 3.8125 7.3125 3.8125C7.41577 3.8125 7.5 3.72827 7.5 3.625C7.5 3.52173 7.41577 3.4375 7.3125 3.4375ZM8.0625 3.4375C7.95923 3.4375 7.875 3.52173 7.875 3.625C7.875 3.72827 7.95923 3.8125 8.0625 3.8125C8.16577 3.8125 8.25 3.72827 8.25 3.625C8.25 3.52173 8.16577 3.4375 8.0625 3.4375ZM8.8125 3.4375C8.70923 3.4375 8.625 3.52173 8.625 3.625C8.625 3.72827 8.70923 3.8125 8.8125 3.8125C8.91577 3.8125 9 3.72827 9 3.625C9 3.52173 8.91577 3.4375 8.8125 3.4375ZM9.5625 3.4375C9.45923 3.4375 9.375 3.52173 9.375 3.625C9.375 3.72827 9.45923 3.8125 9.5625 3.8125C9.66577 3.8125 9.75 3.72827 9.75 3.625C9.75 3.52173 9.66577 3.4375 9.5625 3.4375ZM10.3125 3.4375C10.2092 3.4375 10.125 3.52173 10.125 3.625C10.125 3.72827 10.2092 3.8125 10.3125 3.8125C10.4158 3.8125 10.5 3.72827 10.5 3.625C10.5 3.52173 10.4158 3.4375 10.3125 3.4375ZM3.5625 4.9375C3.45923 4.9375 3.375 5.02173 3.375 5.125C3.375 5.22827 3.45923 5.3125 3.5625 5.3125C3.66577 5.3125 3.75 5.22827 3.75 5.125C3.75 5.02173 3.66577 4.9375 3.5625 4.9375ZM4.3125 4.9375C4.20923 4.9375 4.125 5.02173 4.125 5.125C4.125 5.22827 4.20923 5.3125 4.3125 5.3125C4.41577 5.3125 4.5 5.22827 4.5 5.125C4.5 5.02173 4.41577 4.9375 4.3125 4.9375ZM5.0625 4.9375C4.95923 4.9375 4.875 5.02173 4.875 5.125C4.875 5.22827 4.95923 5.3125 5.0625 5.3125C5.16577 5.3125 5.25 5.22827 5.25 5.125C5.25 5.02173 5.16577 4.9375 5.0625 4.9375ZM5.8125 4.9375C5.70923 4.9375 5.625 5.02173 5.625 5.125C5.625 5.22827 5.70923 5.3125 5.8125 5.3125C5.91577 5.3125 6 5.22827 6 5.125C6 5.02173 5.91577 4.9375 5.8125 4.9375ZM6.5625 4.9375C6.45923 4.9375 6.375 5.02173 6.375 5.125C6.375 5.22827 6.45923 5.3125 6.5625 5.3125C6.66577 5.3125 6.75 5.22827 6.75 5.125C6.75 5.02173 6.66577 4.9375 6.5625 4.9375ZM7.3125 4.9375C7.20923 4.9375 7.125 5.02173 7.125 5.125C7.125 5.22827 7.20923 5.3125 7.3125 5.3125C7.41577 5.3125 7.5 5.22827 7.5 5.125C7.5 5.02173 7.41577 4.9375 7.3125 4.9375ZM8.0625 4.9375C7.95923 4.9375 7.875 5.02173 7.875 5.125C7.875 5.22827 7.95923 5.3125 8.0625 5.3125C8.16577 5.3125 8.25 5.22827 8.25 5.125C8.25 5.02173 8.16577 4.9375 8.0625 4.9375ZM8.8125 4.9375C8.70923 4.9375 8.625 5.02173 8.625 5.125C8.625 5.22827 8.70923 5.3125 8.8125 5.3125C8.91577 5.3125 9 5.22827 9 5.125C9 5.02173 8.91577 4.9375 8.8125 4.9375ZM9.5625 4.9375C9.45923 4.9375 9.375 5.02173 9.375 5.125C9.375 5.22827 9.45923 5.3125 9.5625 5.3125C9.66577 5.3125 9.75 5.22827 9.75 5.125C9.75 5.02173 9.66577 4.9375 9.5625 4.9375ZM10.3125 4.9375C10.2092 4.9375 10.125 5.02173 10.125 5.125C10.125 5.22827 10.2092 5.3125 10.3125 5.3125C10.4158 5.3125 10.5 5.22827 10.5 5.125C10.5 5.02173 10.4158 4.9375 10.3125 4.9375ZM0.9375 5.3125H1.45605C1.48315 5.31909 1.51172 5.31909 1.53955 5.3125H2.53711L3.47461 6.4375H10.6003L11.072 5.72998C11.2463 5.46924 11.5386 5.3125 11.8521 5.3125H14.0193C13.6304 7.53833 12.3208 9.02002 12.1003 9.25659C12.0674 9.25293 12.0344 9.25 12 9.25C11.7502 9.25 11.5408 9.36353 11.3533 9.45728C11.1658 9.55103 11.0002 9.625 10.875 9.625C10.7498 9.625 10.5842 9.55103 10.3967 9.45728C10.2092 9.36353 9.99976 9.25 9.75 9.25C9.50024 9.25 9.29077 9.36353 9.10327 9.45728C8.91577 9.55103 8.75024 9.625 8.625 9.625C8.49976 9.625 8.33423 9.55103 8.14673 9.45728C7.95923 9.36353 7.74976 9.25 7.5 9.25C7.25024 9.25 7.04077 9.36353 6.85327 9.45728C6.66577 9.55103 6.50024 9.625 6.375 9.625C6.24976 9.625 6.08423 9.55103 5.89673 9.45728C5.70923 9.36353 5.49976 9.25 5.25 9.25C5.00024 9.25 4.79077 9.36353 4.60327 9.45728C4.41577 9.55103 4.25024 9.625 4.125 9.625C3.99976 9.625 3.83423 9.55103 3.64673 9.45728C3.45923 9.36353 3.24976 9.25 3 9.25C2.75024 9.25 2.54077 9.36353 2.35327 9.45728C2.30713 9.48071 2.26611 9.49683 2.2229 9.5166C1.8501 8.45459 1.07739 7.94043 0.9375 7.85107V5.3125ZM1.6875 6.0625C1.58423 6.0625 1.5 6.14673 1.5 6.25C1.5 6.35327 1.58423 6.4375 1.6875 6.4375C1.79077 6.4375 1.875 6.35327 1.875 6.25C1.875 6.14673 1.79077 6.0625 1.6875 6.0625ZM2.4375 6.0625C2.33423 6.0625 2.25 6.14673 2.25 6.25C2.25 6.35327 2.33423 6.4375 2.4375 6.4375C2.54077 6.4375 2.625 6.35327 2.625 6.25C2.625 6.14673 2.54077 6.0625 2.4375 6.0625ZM11.4375 6.0625C11.3342 6.0625 11.25 6.14673 11.25 6.25C11.25 6.35327 11.3342 6.4375 11.4375 6.4375C11.5408 6.4375 11.625 6.35327 11.625 6.25C11.625 6.14673 11.5408 6.0625 11.4375 6.0625ZM12.1875 6.0625C12.0842 6.0625 12 6.14673 12 6.25C12 6.35327 12.0842 6.4375 12.1875 6.4375C12.2908 6.4375 12.375 6.35327 12.375 6.25C12.375 6.14673 12.2908 6.0625 12.1875 6.0625ZM12.9375 6.0625C12.8342 6.0625 12.75 6.14673 12.75 6.25C12.75 6.35327 12.8342 6.4375 12.9375 6.4375C13.0408 6.4375 13.125 6.35327 13.125 6.25C13.125 6.14673 13.0408 6.0625 12.9375 6.0625ZM1.6875 7C1.58423 7 1.5 7.08423 1.5 7.1875C1.5 7.29077 1.58423 7.375 1.6875 7.375C1.79077 7.375 1.875 7.29077 1.875 7.1875C1.875 7.08423 1.79077 7 1.6875 7ZM2.4375 7C2.33423 7 2.25 7.08423 2.25 7.1875C2.25 7.29077 2.33423 7.375 2.4375 7.375C2.54077 7.375 2.625 7.29077 2.625 7.1875C2.625 7.08423 2.54077 7 2.4375 7ZM3.1875 7C3.08423 7 3 7.08423 3 7.1875C3 7.29077 3.08423 7.375 3.1875 7.375C3.29077 7.375 3.375 7.29077 3.375 7.1875C3.375 7.08423 3.29077 7 3.1875 7ZM3.9375 7C3.83423 7 3.75 7.08423 3.75 7.1875C3.75 7.29077 3.83423 7.375 3.9375 7.375C4.04077 7.375 4.125 7.29077 4.125 7.1875C4.125 7.08423 4.04077 7 3.9375 7ZM4.6875 7C4.58423 7 4.5 7.08423 4.5 7.1875C4.5 7.29077 4.58423 7.375 4.6875 7.375C4.79077 7.375 4.875 7.29077 4.875 7.1875C4.875 7.08423 4.79077 7 4.6875 7ZM5.4375 7C5.33423 7 5.25 7.08423 5.25 7.1875C5.25 7.29077 5.33423 7.375 5.4375 7.375C5.54077 7.375 5.625 7.29077 5.625 7.1875C5.625 7.08423 5.54077 7 5.4375 7ZM6.1875 7C6.08423 7 6 7.08423 6 7.1875C6 7.29077 6.08423 7.375 6.1875 7.375C6.29077 7.375 6.375 7.29077 6.375 7.1875C6.375 7.08423 6.29077 7 6.1875 7ZM6.9375 7C6.83423 7 6.75 7.08423 6.75 7.1875C6.75 7.29077 6.83423 7.375 6.9375 7.375C7.04077 7.375 7.125 7.29077 7.125 7.1875C7.125 7.08423 7.04077 7 6.9375 7ZM7.6875 7C7.58423 7 7.5 7.08423 7.5 7.1875C7.5 7.29077 7.58423 7.375 7.6875 7.375C7.79077 7.375 7.875 7.29077 7.875 7.1875C7.875 7.08423 7.79077 7 7.6875 7ZM8.4375 7C8.33423 7 8.25 7.08423 8.25 7.1875C8.25 7.29077 8.33423 7.375 8.4375 7.375C8.54077 7.375 8.625 7.29077 8.625 7.1875C8.625 7.08423 8.54077 7 8.4375 7ZM9.1875 7C9.08423 7 9 7.08423 9 7.1875C9 7.29077 9.08423 7.375 9.1875 7.375C9.29077 7.375 9.375 7.29077 9.375 7.1875C9.375 7.08423 9.29077 7 9.1875 7ZM9.9375 7C9.83423 7 9.75 7.08423 9.75 7.1875C9.75 7.29077 9.83423 7.375 9.9375 7.375C10.0408 7.375 10.125 7.29077 10.125 7.1875C10.125 7.08423 10.0408 7 9.9375 7ZM10.6875 7C10.5842 7 10.5 7.08423 10.5 7.1875C10.5 7.29077 10.5842 7.375 10.6875 7.375C10.7908 7.375 10.875 7.29077 10.875 7.1875C10.875 7.08423 10.7908 7 10.6875 7ZM11.4375 7C11.3342 7 11.25 7.08423 11.25 7.1875C11.25 7.29077 11.3342 7.375 11.4375 7.375C11.5408 7.375 11.625 7.29077 11.625 7.1875C11.625 7.08423 11.5408 7 11.4375 7ZM12.1875 7C12.0842 7 12 7.08423 12 7.1875C12 7.29077 12.0842 7.375 12.1875 7.375C12.2908 7.375 12.375 7.29077 12.375 7.1875C12.375 7.08423 12.2908 7 12.1875 7ZM1.125 9.625C1.02173 9.625 0.9375 9.70923 0.9375 9.8125C0.9375 9.91577 1.02173 10 1.125 10C1.22827 10 1.3125 9.91577 1.3125 9.8125C1.3125 9.70923 1.22827 9.625 1.125 9.625ZM13.875 9.625C13.7717 9.625 13.6875 9.70923 13.6875 9.8125C13.6875 9.91577 13.7717 10 13.875 10C13.9783 10 14.0625 9.91577 14.0625 9.8125C14.0625 9.70923 13.9783 9.625 13.875 9.625Z" fill="#B9B9B9"/>
</svg>
